SplineFontDB: 3.2
FontName: Estedad-Bold
FullName: Estedad Bold
FamilyName: Estedad Bold
Weight: Bold
Copyright: Copyright (c) 2020 by Amin Abedi (@aminabedi68)-www.fontamin.com,\nwith Reserved Font Name Estedad.\n\nThis Font Software is licensed under the SIL Open Font License, Version 1.1.
Version: 4.0
ItalicAngle: 0
UnderlinePosition: -680
UnderlineWidth: 125
Ascent: 1638
Descent: 410
InvalidEm: 0
UFOAscent: 1638
UFODescent: -410
LayerCount: 2
Layer: 0 0 "Back" 1
Layer: 1 0 "public.default" 0 "glyphs"
StyleMap: 0x0000
FSType: 0
OS2Version: 0
OS2_WeightWidthSlopeOnly: 0
OS2_UseTypoMetrics: 0
CreationTime: 1585136901
ModificationTime: 1585168362
PfmFamily: 16
TTFWeight: 700
TTFWidth: 5
LineGap: 0
VLineGap: 0
OS2TypoAscent: 2311
OS2TypoAOffset: 0
OS2TypoDescent: -1260
OS2TypoDOffset: 0
OS2TypoLinegap: 0
OS2WinAscent: 2311
OS2WinAOffset: 0
OS2WinDescent: 1260
OS2WinDOffset: 0
HheadAscent: 2311
HheadAOffset: 0
HheadDescent: -1260
HheadDOffset: 0
OS2CapHeight: 1470
OS2XHeight: 1063
OS2Vendor: 'amin'
Lookup: 2 0 0 "Multiple substitution 0" { "Multiple substitution 0 subtable"  } []
Lookup: 2 0 0 "Multiple substitution 1" { "Multiple substitution 1 subtable"  } []
Lookup: 1 9 0 "'fina' Terminal Forms in Arabic lookup 2" { "'fina' Terminal Forms in Arabic lookup 2 subtable"  } ['fina' ('DFLT' <'dflt' > 'arab' <'FAR ' 'KUR ' 'dflt' > ) ]
Lookup: 1 9 0 "'medi' Medial Forms in Arabic lookup 3" { "'medi' Medial Forms in Arabic lookup 3 subtable"  } ['medi' ('DFLT' <'dflt' > 'arab' <'FAR ' 'KUR ' 'dflt' > ) ]
Lookup: 1 9 0 "'init' Initial Forms in Arabic lookup 4" { "'init' Initial Forms in Arabic lookup 4 subtable"  } ['init' ('DFLT' <'dflt' > 'arab' <'FAR ' 'KUR ' 'dflt' > ) ]
Lookup: 4 9 1 "'rlig' Required Ligatures in Arabic lookup 5" { "'rlig' Required Ligatures in Arabic lookup 5 subtable"  } ['rlig' ('DFLT' <'dflt' > 'arab' <'FAR ' 'KUR ' 'dflt' > ) ]

StartChar: A
Encoding: 65 65 0
GlifName: A_
Width: 1352
VWidth: 0
GlyphClass: 2
Flags: HW
LayerCount: 2
Fore
SplineSet
403 320 m 257
 288 0 l 257
 8 0 l 257
 530 1380 l 257
 824 1380 l 257
 1345 0 l 257
 1065 0 l 257
 950 320 l 257
 403 320 l 257
477 526 m 257
 876 526 l 257
 676 1071 l 257
 477 526 l 257
EndSplineSet
EndChar

StartChar: AE
Encoding: 198 198 1
GlifName: A_E_
Width: 1771
VWidth: 0
GlyphClass: 2
Flags: HW
LayerCount: 2
Fore
SplineSet
852 1155 m 257
 780 1155 l 257
 532 574 l 257
 852 574 l 257
 852 1155 l 257
624 1380 m 257
 1690 1380 l 257
 1690 1155 l 257
 1114 1155 l 257
 1114 794 l 257
 1638 794 l 257
 1638 586 l 257
 1114 586 l 257
 1114 223 l 257
 1690 223 l 257
 1690 0 l 257
 852 0 l 257
 852 367 l 257
 452 367 l 257
 296 0 l 257
 16 0 l 257
 624 1380 l 257
EndSplineSet
EndChar

StartChar: B
Encoding: 66 66 8
GlifName: B_
Width: 1317
VWidth: 0
GlyphClass: 2
Flags: HW
LayerCount: 2
Fore
SplineSet
142 1380 m 257
 670 1380 l 258
 933 1380 1148 1229 1148 974 c 256
 1148 855 1102 772 1016 716 c 257
 1145 656 1212 543 1212 396 c 256
 1212 141 996 0 735 0 c 258
 142 0 l 257
 142 1380 l 257
405 586 m 257
 405 223 l 257
 735 223 l 258
 855 223 950 270 950 396 c 256
 950 526 849 586 735 586 c 258
 405 586 l 257
670 794 m 258
 789 794 886 848 886 974 c 256
 886 1101 787 1155 670 1155 c 258
 405 1155 l 257
 405 794 l 257
 670 794 l 258
EndSplineSet
EndChar

StartChar: C
Encoding: 67 67 9
GlifName: C_
Width: 1386
VWidth: 0
GlyphClass: 2
Flags: HW
LayerCount: 2
Fore
SplineSet
1071 411 m 257
 1276 310 l 257
 1187 122 1012 -21 739 -21 c 256
 319 -21 96 302 96 690 c 256
 96 1078 319 1400 739 1400 c 256
 1012 1400 1187 1258 1276 1070 c 257
 1071 969 l 257
 1009 1098 904 1176 741 1176 c 256
 502 1176 358 1000 358 690 c 256
 358 379 502 203 741 203 c 256
 904 203 1009 282 1071 411 c 257
EndSplineSet
EndChar

StartChar: D
Encoding: 68 68 11
GlifName: D_
Width: 1361
VWidth: 0
GlyphClass: 2
Flags: HW
LayerCount: 2
Fore
SplineSet
1260 690 m 256
 1260 315 1072 0 620 0 c 258
 153 0 l 257
 153 1380 l 257
 620 1380 l 258
 1072 1380 1260 1065 1260 690 c 256
998 690 m 256
 998 1005 890 1155 620 1155 c 258
 415 1155 l 257
 415 223 l 257
 620 223 l 258
 890 223 998 374 998 690 c 256
EndSplineSet
EndChar

StartChar: E
Encoding: 69 69 12
GlifName: E_
Width: 1087
VWidth: 0
GlyphClass: 2
Flags: HW
LayerCount: 2
Fore
SplineSet
1038 223 m 257
 1038 0 l 257
 153 0 l 257
 153 1380 l 257
 1038 1380 l 257
 1038 1155 l 257
 415 1155 l 257
 415 794 l 257
 986 794 l 257
 986 586 l 257
 415 586 l 257
 415 223 l 257
 1038 223 l 257
EndSplineSet
EndChar

StartChar: F
Encoding: 70 70 18
GlifName: F_
Width: 1084
VWidth: 0
GlyphClass: 2
Flags: HW
LayerCount: 2
Fore
SplineSet
415 0 m 257
 153 0 l 257
 153 1380 l 257
 1038 1380 l 257
 1038 1155 l 257
 415 1155 l 257
 415 751 l 257
 934 751 l 257
 934 543 l 257
 415 543 l 257
 415 0 l 257
EndSplineSet
EndChar

StartChar: G
Encoding: 71 71 19
GlifName: G_
Width: 1463
VWidth: 0
GlyphClass: 2
Flags: HW
LayerCount: 2
Fore
SplineSet
701 758 m 257
 1351 761 l 257
 1351 537 l 258
 1351 221 1179 -21 770 -21 c 256
 328 -21 105 303 105 690 c 256
 105 1078 328 1400 748 1400 c 256
 1021 1400 1197 1258 1286 1070 c 257
 1080 969 l 257
 1018 1098 913 1176 750 1176 c 256
 511 1176 368 1000 368 690 c 256
 368 379 508 203 776 203 c 256
 992 203 1089 312 1089 494 c 258
 1089 544 l 257
 704 544 l 257
 701 758 l 257
EndSplineSet
EndChar

StartChar: GAFbar
Encoding: 1114112 -1 20
GlifName: G_A_F_bar
Width: 1049
VWidth: 0
GlyphClass: 2
Flags: HW
LayerCount: 2
Fore
SplineSet
846 2087 m 257
 874 1952 l 257
 607 1897 334 1790 106 1644 c 257
 31 1760 l 257
 276 1917 562 2028 846 2087 c 257
EndSplineSet
EndChar

StartChar: H
Encoding: 72 72 21
GlifName: H_
Width: 1428
VWidth: 0
GlyphClass: 2
Flags: HW
LayerCount: 2
Fore
SplineSet
1014 1380 m 257
 1277 1380 l 257
 1277 0 l 257
 1014 0 l 257
 1014 603 l 257
 415 603 l 257
 415 0 l 257
 153 0 l 257
 153 1380 l 257
 415 1380 l 257
 415 811 l 257
 1014 811 l 257
 1014 1380 l 257
EndSplineSet
EndChar

StartChar: I
Encoding: 73 73 24
GlifName: I_
Width: 635
VWidth: 0
GlyphClass: 2
Flags: HW
LayerCount: 2
Fore
SplineSet
449 0 m 257
 186 0 l 257
 186 1380 l 257
 449 1380 l 257
 449 0 l 257
EndSplineSet
EndChar

StartChar: J
Encoding: 74 74 29
GlifName: J_
Width: 956
VWidth: 0
GlyphClass: 2
Flags: HW
LayerCount: 2
Fore
SplineSet
52 58 m 257
 143 248 l 257
 203 218 265 202 324 202 c 256
 457 202 542 278 542 446 c 258
 542 1380 l 257
 805 1380 l 257
 805 446 l 258
 805 130 591 -21 347 -21 c 256
 245 -21 141 4 52 58 c 257
EndSplineSet
EndChar

StartChar: K
Encoding: 75 75 30
GlifName: K_
Width: 1307
VWidth: 0
GlyphClass: 2
Flags: HW
LayerCount: 2
Fore
SplineSet
977 1380 m 257
 1287 1380 l 257
 707 689 l 257
 1287 0 l 257
 977 0 l 257
 563 512 l 257
 415 326 l 257
 415 0 l 257
 153 0 l 257
 153 1380 l 257
 415 1380 l 257
 415 705 l 257
 977 1380 l 257
EndSplineSet
EndChar

StartChar: L
Encoding: 76 76 31
GlifName: L_
Width: 1071
VWidth: 0
GlyphClass: 2
Flags: HW
LayerCount: 2
Fore
SplineSet
1028 223 m 257
 1028 0 l 257
 153 0 l 257
 153 1380 l 257
 415 1380 l 257
 415 223 l 257
 1028 223 l 257
EndSplineSet
EndChar

StartChar: M
Encoding: 77 77 32
GlifName: M_
Width: 1819
VWidth: 0
GlyphClass: 2
Flags: HW
LayerCount: 2
Fore
SplineSet
415 0 m 257
 153 0 l 257
 153 1380 l 257
 467 1380 l 257
 904 253 l 257
 1353 1380 l 257
 1668 1380 l 257
 1668 0 l 257
 1405 0 l 257
 1405 963 l 257
 1033 0 l 257
 774 0 l 257
 415 962 l 257
 415 0 l 257
EndSplineSet
EndChar

StartChar: N
Encoding: 78 78 33
GlifName: N_
Width: 1453
VWidth: 0
GlyphClass: 2
Flags: HW
LayerCount: 2
Fore
SplineSet
1040 1380 m 257
 1302 1380 l 257
 1302 0 l 257
 1045 0 l 257
 415 948 l 257
 415 0 l 257
 153 0 l 257
 153 1380 l 257
 409 1380 l 257
 1040 430 l 257
 1040 1380 l 257
EndSplineSet
EndChar

StartChar: O
Encoding: 79 79 35
GlifName: O_
Width: 1522
VWidth: 0
GlyphClass: 2
Flags: HW
LayerCount: 2
Fore
SplineSet
762 1400 m 256
 1194 1400 1417 1078 1417 690 c 256
 1417 302 1194 -21 762 -21 c 256
 330 -21 106 302 106 690 c 256
 106 1078 330 1400 762 1400 c 256
762 1176 m 256
 512 1176 369 1000 369 690 c 256
 369 379 512 202 762 202 c 256
 1012 202 1155 380 1155 690 c 256
 1155 1001 1012 1176 762 1176 c 256
EndSplineSet
EndChar

StartChar: OE
Encoding: 338 338 36
GlifName: O_E_
Width: 1798
VWidth: 0
GlyphClass: 2
Flags: HW
LayerCount: 2
Fore
SplineSet
863 1155 m 257
 781 1155 l 258
 477 1155 342 1000 342 690 c 256
 342 379 477 223 781 223 c 258
 863 223 l 257
 863 1155 l 257
1126 1155 m 257
 1126 794 l 257
 1649 794 l 257
 1649 586 l 257
 1126 586 l 257
 1126 223 l 257
 1702 223 l 257
 1702 0 l 257
 781 0 l 258
 294 0 79 302 79 690 c 256
 79 1078 294 1380 781 1380 c 258
 1702 1380 l 257
 1702 1155 l 257
 1126 1155 l 257
EndSplineSet
EndChar

StartChar: P
Encoding: 80 80 43
GlifName: P_
Width: 1279
VWidth: 0
GlyphClass: 2
Flags: HW
LayerCount: 2
Fore
SplineSet
405 0 m 257
 142 0 l 257
 142 1380 l 257
 694 1380 l 258
 957 1380 1187 1231 1187 960 c 256
 1187 688 954 538 694 538 c 258
 405 538 l 257
 405 0 l 257
405 1155 m 257
 405 762 l 257
 694 762 l 258
 813 762 924 802 924 960 c 256
 924 1118 811 1155 694 1155 c 258
 405 1155 l 257
EndSplineSet
EndChar

StartChar: R
Encoding: 82 82 45
GlifName: R_
Width: 1279
VWidth: 0
GlyphClass: 2
Flags: HW
LayerCount: 2
Fore
SplineSet
906 682 m 257
 1264 0 l 257
 996 0 l 257
 670 682 l 257
 906 682 l 257
405 0 m 257
 142 0 l 257
 142 1380 l 257
 694 1380 l 258
 957 1380 1187 1231 1187 960 c 256
 1187 688 954 538 694 538 c 258
 405 538 l 257
 405 0 l 257
405 1155 m 257
 405 762 l 257
 694 762 l 258
 813 762 924 802 924 960 c 256
 924 1118 811 1155 694 1155 c 258
 405 1155 l 257
EndSplineSet
EndChar

StartChar: S
Encoding: 83 83 46
GlifName: S_
Width: 1200
VWidth: 0
GlyphClass: 2
Flags: HW
LayerCount: 2
Fore
SplineSet
89 450 m 257
 348 450 l 257
 348 287 444 203 613 203 c 256
 747 203 853 263 853 391 c 256
 853 502 698 547 574 581 c 256
 374 636 116 736 116 1002 c 256
 116 1259 351 1400 589 1400 c 256
 881 1400 1086 1218 1086 928 c 257
 827 928 l 257
 827 1085 750 1176 589 1176 c 256
 463 1176 374 1116 374 996 c 256
 374 886 528 841 651 807 c 256
 851 751 1112 651 1112 378 c 256
 1112 102 841 -21 613 -21 c 256
 310 -21 89 148 89 450 c 257
EndSplineSet
EndChar

StartChar: T
Encoding: 84 84 47
GlifName: T_
Width: 1291
VWidth: 0
GlyphClass: 2
Flags: HW
LayerCount: 2
Fore
SplineSet
778 0 m 257
 515 0 l 257
 515 1155 l 257
 58 1155 l 257
 58 1380 l 257
 1234 1380 l 257
 1234 1155 l 257
 778 1155 l 257
 778 0 l 257
EndSplineSet
EndChar

StartChar: Thorn
Encoding: 222 222 54
GlifName: T_horn
Width: 1195
VWidth: 0
GlyphClass: 2
Flags: HW
LayerCount: 2
Fore
SplineSet
423 482 m 257
 598 482 l 258
 764 482 852 533 852 687 c 256
 852 841 764 892 598 892 c 258
 423 892 l 257
 423 482 l 257
423 0 m 257
 160 0 l 257
 160 1380 l 257
 423 1380 l 257
 423 1099 l 257
 598 1099 l 258
 865 1099 1115 992 1115 687 c 256
 1115 382 865 275 598 275 c 258
 423 275 l 257
 423 0 l 257
EndSplineSet
EndChar

StartChar: U
Encoding: 85 85 55
GlifName: U_
Width: 1414
VWidth: 0
GlyphClass: 2
Flags: HW
LayerCount: 2
Fore
SplineSet
1014 1380 m 257
 1277 1380 l 257
 1277 527 l 258
 1277 202 1050 -21 708 -21 c 256
 366 -21 138 202 138 527 c 258
 138 1380 l 257
 400 1380 l 257
 400 511 l 258
 400 316 503 202 708 202 c 256
 913 202 1014 316 1014 511 c 258
 1014 1380 l 257
EndSplineSet
EndChar

StartChar: V
Encoding: 86 86 60
GlifName: V_
Width: 1352
VWidth: 0
GlyphClass: 2
Flags: HW
LayerCount: 2
Fore
SplineSet
1065 1380 m 257
 1345 1380 l 257
 823 0 l 257
 529 0 l 257
 8 1380 l 257
 288 1380 l 257
 676 309 l 257
 1065 1380 l 257
EndSplineSet
EndChar

StartChar: W
Encoding: 87 87 61
GlifName: W_
Width: 1967
VWidth: 0
GlyphClass: 2
Flags: HW
LayerCount: 2
Fore
SplineSet
1656 1380 m 257
 1929 1380 l 257
 1518 0 l 257
 1250 0 l 257
 984 1004 l 257
 717 0 l 257
 449 0 l 257
 40 1380 l 257
 312 1380 l 257
 583 374 l 257
 850 1380 l 257
 1118 1380 l 257
 1384 374 l 257
 1656 1380 l 257
EndSplineSet
EndChar

StartChar: X
Encoding: 88 88 62
GlifName: X_
Width: 1364
VWidth: 0
GlyphClass: 2
Flags: HW
LayerCount: 2
Fore
SplineSet
1344 0 m 257
 1035 0 l 257
 683 496 l 257
 330 0 l 257
 22 0 l 257
 544 689 l 257
 22 1380 l 257
 330 1380 l 257
 683 882 l 257
 1035 1380 l 257
 1344 1380 l 257
 822 689 l 257
 1344 0 l 257
EndSplineSet
EndChar

StartChar: Y
Encoding: 89 89 63
GlifName: Y_
Width: 1318
VWidth: 0
GlyphClass: 2
Flags: HW
LayerCount: 2
Fore
SplineSet
1008 1380 m 257
 1311 1380 l 257
 791 574 l 257
 791 0 l 257
 529 0 l 257
 529 574 l 257
 8 1380 l 257
 312 1380 l 257
 660 794 l 257
 1008 1380 l 257
EndSplineSet
EndChar

StartChar: Z
Encoding: 90 90 65
GlifName: Z_
Width: 1231
VWidth: 0
GlyphClass: 2
Flags: HW
LayerCount: 2
Fore
SplineSet
71 1155 m 257
 71 1379 l 257
 1161 1379 l 257
 1161 1182 l 257
 367 223 l 257
 1161 223 l 257
 1161 0 l 257
 71 0 l 257
 71 197 l 257
 865 1155 l 257
 71 1155 l 257
EndSplineSet
EndChar

StartChar: a
Encoding: 97 97 66
GlifName: a
Width: 1032
VWidth: 0
GlyphClass: 2
Flags: HW
LayerCount: 2
Fore
SplineSet
915 600 m 258
 915 0 l 257
 652 0 l 257
 652 594 l 258
 652 718 612 815 482 815 c 256
 375 815 320 736 284 668 c 257
 96 761 l 257
 160 898 277 1016 496 1016 c 256
 723 1016 915 882 915 600 c 258
EndSplineSet
Refer: 312 57355 N 1 0 0 1 -36 0 2
EndChar

StartChar: acute
Encoding: 180 180 69
GlifName: acute
Width: 542
VWidth: 0
GlyphClass: 2
Flags: HW
LayerCount: 2
Fore
SplineSet
334 1420 m 257
 426 1362 l 257
 210 1017 l 257
 117 1075 l 257
 334 1420 l 257
EndSplineSet
EndChar

StartChar: ae
Encoding: 230 230 71
GlifName: ae
Width: 1648
VWidth: 0
GlyphClass: 2
Flags: HW
LayerCount: 2
Fore
SplineSet
915 446 m 257
 925 297 1000 172 1136 172 c 256
 1236 172 1304 245 1334 329 c 257
 1545 262 l 257
 1498 113 1350 -21 1135 -21 c 256
 815 -21 652 242 652 498 c 256
 652 754 823 1016 1134 1016 c 256
 1426 1016 1582 754 1582 470 c 258
 1582 446 l 257
 915 446 l 257
922 598 m 257
 1339 598 l 257
 1319 723 1254 822 1136 822 c 256
 1021 822 945 740 922 598 c 257
915 592 m 258
 915 274 l 257
 652 274 l 257
 652 586 l 258
 652 710 612 815 482 815 c 256
 375 815 320 736 284 668 c 257
 96 761 l 257
 160 898 277 1016 496 1016 c 256
 723 1016 915 874 915 592 c 258
EndSplineSet
Refer: 312 57355 N 1 0 0 1 -36 0 2
EndChar

StartChar: ampersand
Encoding: 38 38 73
GlifName: ampersand
Width: 1132
VWidth: 0
GlyphClass: 2
Flags: HW
LayerCount: 2
Fore
SplineSet
341 715 m 257
 279 789 l 258
 213 867 181 957 181 1045 c 256
 181 1220 318 1400 566 1400 c 256
 806 1400 958 1235 958 1063 c 256
 958 886 821 755 700 670 c 257
 893 444 l 257
 992 578 l 257
 1192 434 l 257
 1057 254 l 257
 1176 114 l 257
 989 -41 l 257
 882 82 l 257
 786 14 668 -21 533 -21 c 256
 307 -21 105 118 105 347 c 256
 105 517 226 633 341 715 c 257
494 536 m 257
 417 478 364 423 364 347 c 256
 364 241 429 200 533 200 c 256
 626 200 676 222 728 262 c 257
 494 536 l 257
548 849 m 257
 615 898 699 969 699 1063 c 256
 699 1135 644 1179 566 1179 c 256
 484 1179 439 1128 439 1045 c 256
 439 1003 456 957 488 919 c 258
 548 849 l 257
EndSplineSet
EndChar

StartChar: asciicircum
Encoding: 94 94 75
GlifName: asciicircum
Width: 739
VWidth: 0
GlyphClass: 2
Flags: HW
LayerCount: 2
Fore
SplineSet
662 1055 m 257
 574 987 l 257
 370 1247 l 257
 164 987 l 257
 78 1055 l 257
 322 1364 l 257
 417 1364 l 257
 662 1055 l 257
EndSplineSet
EndChar

StartChar: asciitilde
Encoding: 126 126 76
GlifName: asciitilde
Width: 911
VWidth: 0
GlyphClass: 2
Flags: HW
LayerCount: 2
Fore
SplineSet
68 1051 m 257
 124 1182 214 1246 302 1246 c 256
 371 1246 426 1223 489 1175 c 256
 543 1135 566 1126 610 1126 c 256
 638 1126 698 1158 742 1259 c 257
 844 1215 l 257
 790 1089 702 1015 610 1015 c 256
 540 1015 483 1042 423 1088 c 256
 367 1129 346 1136 302 1136 c 256
 269 1136 213 1110 169 1008 c 257
 68 1051 l 257
EndSplineSet
EndChar

StartChar: asterisk
Encoding: 42 42 77
GlifName: asterisk
Width: 1189
VWidth: 0
GlyphClass: 2
Flags: HW
LayerCount: 2
Fore
SplineSet
159 996 m 257
 216 1172 l 257
 511 1068 l 257
 502 1380 l 257
 687 1380 l 257
 679 1068 l 257
 974 1172 l 257
 1031 996 l 257
 732 908 l 257
 923 658 l 257
 772 549 l 257
 594 808 l 257
 417 549 l 257
 267 658 l 257
 458 908 l 257
 159 996 l 257
EndSplineSet
EndChar

StartChar: at
Encoding: 64 64 78
GlifName: at
Width: 2198
VWidth: 0
GlyphClass: 2
Flags: HW
LayerCount: 2
Fore
SplineSet
1098 883 m 256
 966 883 806 773 806 472 c 256
 806 282 887 189 1020 189 c 256
 1104 189 1231 257 1251 499 c 258
 1280 838 l 257
 1238 864 1194 883 1098 883 c 256
1098 1092 m 256
 1321 1092 1426 1009 1532 923 c 257
 1482 353 l 258
 1480 335 1480 319 1480 311 c 256
 1480 213 1528 168 1618 168 c 256
 1743 168 1848 305 1848 544 c 256
 1848 972 1504 1320 1092 1320 c 256
 685 1320 327 986 327 544 c 256
 327 92 668 -231 1100 -231 c 256
 1188 -231 1272 -215 1350 -189 c 257
 1404 -329 l 257
 1310 -361 1208 -379 1100 -379 c 256
 555 -379 158 27 158 544 c 256
 158 1050 569 1467 1089 1467 c 256
 1619 1467 2018 1036 2018 544 c 256
 2018 297 1890 -20 1571 -20 c 256
 1457 -20 1369 29 1315 99 c 257
 1233 21 1130 -20 1020 -20 c 256
 789 -20 563 137 563 472 c 256
 563 852 798 1092 1098 1092 c 256
EndSplineSet
EndChar

StartChar: b
Encoding: 98 98 80
GlifName: b
Width: 1195
VWidth: 0
GlyphClass: 2
Flags: HW
LayerCount: 2
Fore
SplineSet
396 0 m 257
 134 0 l 257
 134 1484 l 257
 396 1484 l 257
 396 0 l 257
EndSplineSet
Refer: 316 57359 N 1 0 0 1 34 0 2
EndChar

StartChar: backslash
Encoding: 92 92 81
GlifName: backslash
Width: 1072
VWidth: 0
GlyphClass: 2
Flags: HW
LayerCount: 2
Fore
SplineSet
1039 75 m 257
 804 -75 l 257
 35 1276 l 257
 268 1426 l 257
 1039 75 l 257
EndSplineSet
EndChar

StartChar: bar
Encoding: 124 124 82
GlifName: bar
Width: 462
VWidth: 0
GlyphClass: 2
Flags: HW
LayerCount: 2
Fore
SplineSet
116 1380 m 257
 347 1380 l 257
 347 -431 l 257
 116 -431 l 257
 116 1380 l 257
EndSplineSet
EndChar

StartChar: braceleft
Encoding: 123 123 83
GlifName: braceleft
Width: 846
VWidth: 0
GlyphClass: 2
Flags: HW
LayerCount: 2
Fore
SplineSet
408 690 m 257
 489 656 562 538 562 438 c 258
 562 252 l 258
 562 198 576 184 630 184 c 258
 754 184 l 257
 754 -38 l 257
 575 -38 l 258
 422 -38 299 68 299 212 c 258
 299 438 l 258
 299 510 254 554 196 571 c 258
 105 597 l 257
 105 782 l 257
 196 809 l 258
 254 826 299 870 299 942 c 258
 299 1167 l 258
 299 1311 422 1417 575 1417 c 258
 754 1417 l 257
 754 1195 l 257
 630 1195 l 258
 576 1195 562 1181 562 1127 c 258
 562 942 l 258
 562 842 490 723 408 690 c 257
EndSplineSet
EndChar

StartChar: braceright
Encoding: 125 125 84
GlifName: braceright
Width: 846
VWidth: 0
GlyphClass: 2
Flags: HW
LayerCount: 2
Fore
SplineSet
451 690 m 257
 370 724 298 842 298 942 c 258
 298 1128 l 258
 298 1182 284 1195 230 1195 c 258
 105 1195 l 257
 105 1417 l 257
 285 1417 l 258
 438 1417 560 1311 560 1167 c 258
 560 942 l 258
 560 870 605 826 663 809 c 258
 754 782 l 257
 754 597 l 257
 663 571 l 258
 605 554 560 510 560 438 c 258
 560 212 l 258
 560 68 438 -38 285 -38 c 258
 105 -38 l 257
 105 184 l 257
 230 184 l 258
 284 184 298 198 298 252 c 258
 298 438 l 258
 298 538 369 657 451 690 c 257
EndSplineSet
EndChar

StartChar: bracketleft
Encoding: 91 91 85
GlifName: bracketleft
Width: 674
VWidth: 0
GlyphClass: 2
Flags: HW
LayerCount: 2
Fore
SplineSet
609 184 m 257
 609 -38 l 257
 100 -38 l 257
 100 1417 l 257
 609 1417 l 257
 609 1194 l 257
 363 1194 l 257
 363 184 l 257
 609 184 l 257
EndSplineSet
EndChar

StartChar: bracketright
Encoding: 93 93 86
GlifName: bracketright
Width: 674
VWidth: 0
GlyphClass: 2
Flags: HW
LayerCount: 2
Fore
SplineSet
66 1194 m 257
 66 1417 l 257
 575 1417 l 257
 575 -38 l 257
 66 -38 l 257
 66 184 l 257
 312 184 l 257
 312 1194 l 257
 66 1194 l 257
EndSplineSet
EndChar

StartChar: brokenbar
Encoding: 166 166 87
GlifName: brokenbar
Width: 462
VWidth: 0
GlyphClass: 2
Flags: HW
LayerCount: 2
Fore
SplineSet
363 832 m 257
 100 832 l 257
 100 1380 l 257
 363 1380 l 257
 363 832 l 257
363 0 m 257
 100 0 l 257
 100 537 l 257
 363 537 l 257
 363 0 l 257
EndSplineSet
EndChar

StartChar: c
Encoding: 99 99 88
GlifName: c
Width: 1039
VWidth: 0
GlyphClass: 2
Flags: HW
LayerCount: 2
Fore
SplineSet
558 172 m 256
 658 172 726 245 756 329 c 257
 966 262 l 257
 919 113 771 -21 556 -21 c 256
 236 -21 74 242 74 498 c 256
 74 754 236 1016 556 1016 c 256
 771 1016 919 881 966 732 c 257
 756 665 l 257
 726 749 658 822 558 822 c 256
 421 822 336 696 336 498 c 256
 336 300 421 172 558 172 c 256
EndSplineSet
EndChar

StartChar: cedilla
Encoding: 184 184 90
GlifName: cedilla
Width: 759
VWidth: 0
GlyphClass: 2
Flags: HW
LayerCount: 2
Fore
SplineSet
202 -309 m 257
 379 -309 l 258
 470 -309 476 -274 476 -257 c 256
 476 -241 467 -210 440 -178 c 258
 334 -56 l 257
 427 42 l 257
 532 -80 l 258
 576 -132 604 -193 604 -257 c 256
 604 -379 504 -451 379 -451 c 258
 202 -451 l 257
 202 -309 l 257
EndSplineSet
EndChar

StartChar: cent
Encoding: 162 162 91
GlifName: cent
Width: 1039
VWidth: 0
GlyphClass: 2
Flags: HW
LayerCount: 2
Fore
SplineSet
677 857 m 257
 446 857 l 257
 446 1380 l 257
 677 1380 l 257
 677 857 l 257
677 -431 m 257
 446 -431 l 257
 446 36 l 257
 677 36 l 257
 677 -431 l 257
EndSplineSet
Refer: 88 99 N 1 0 0 1 0 0 2
EndChar

StartChar: comma
Encoding: 44 44 93
GlifName: comma
Width: 611
VWidth: 0
GlyphClass: 2
Flags: HW
LayerCount: 2
Fore
SplineSet
142 188 m 256
 142 276 207 352 297 352 c 256
 392 352 471 290 471 146 c 256
 471 -44 364 -184 230 -283 c 257
 151 -191 l 257
 223 -130 298 -52 323 28 c 257
 245 20 142 83 142 188 c 256
EndSplineSet
EndChar

StartChar: copyright
Encoding: 169 169 94
GlifName: copyright
Width: 1724
VWidth: 0
GlyphClass: 2
Flags: HW
LayerCount: 2
Fore
SplineSet
1132 941 m 257
 1042 863 l 257
 994 924 928 949 866 949 c 256
 747 949 657 850 657 718 c 256
 657 586 747 488 866 488 c 256
 928 488 994 513 1042 574 c 257
 1132 495 l 257
 1057 406 978 360 857 360 c 256
 645 360 510 534 510 718 c 256
 510 902 645 1078 857 1078 c 256
 978 1078 1057 1030 1132 941 c 257
338 718 m 256
 338 415 582 184 863 184 c 256
 1144 184 1388 415 1388 718 c 256
 1388 1020 1144 1251 863 1251 c 256
 582 1251 338 1020 338 718 c 256
110 718 m 256
 110 1120 440 1457 863 1457 c 256
 1286 1457 1614 1120 1614 718 c 256
 1614 317 1287 -24 863 -24 c 256
 439 -24 110 317 110 718 c 256
EndSplineSet
EndChar

StartChar: currency
Encoding: 164 164 95
GlifName: currency
Width: 1352
VWidth: 0
GlyphClass: 2
Flags: HW
LayerCount: 2
Fore
SplineSet
611 866 m 257
 437 739 l 257
 311 1005 l 257
 484 1131 l 257
 611 866 l 257
342 412 m 257
 479 253 l 257
 231 126 l 257
 95 284 l 257
 342 412 l 257
897 582 m 257
 760 709 l 257
 887 836 l 257
 1024 710 l 257
 897 582 l 257
855 96 m 257
 1029 255 l 257
 1276 -11 l 257
 1103 -168 l 257
 855 96 l 257
EndSplineSet
Refer: 142 111 N 1 0 0 1 117 0 2
EndChar

StartChar: d
Encoding: 100 100 96
GlifName: d
Width: 1195
VWidth: 0
GlyphClass: 2
Flags: HW
LayerCount: 2
Fore
SplineSet
1061 0 m 257
 799 0 l 257
 799 1484 l 257
 1061 1484 l 257
 1061 0 l 257
EndSplineSet
Refer: 316 57359 N -1 0 0 -1 1161 996 2
EndChar

StartChar: degree
Encoding: 176 176 97
GlifName: degree
Width: 678
VWidth: 0
GlyphClass: 2
Flags: HW
LayerCount: 2
Fore
SplineSet
486 1326 m 256
 486 1409 422 1473 339 1473 c 256
 256 1473 193 1409 193 1326 c 256
 193 1243 256 1180 339 1180 c 256
 422 1180 486 1243 486 1326 c 256
596 1326 m 256
 596 1184 481 1070 339 1070 c 256
 197 1070 83 1184 83 1326 c 256
 83 1468 197 1584 339 1584 c 256
 481 1584 596 1468 596 1326 c 256
EndSplineSet
EndChar

StartChar: dotlessi
Encoding: 305 305 101
GlifName: dotlessi
Width: 498
VWidth: 0
GlyphClass: 2
Flags: HW
LayerCount: 2
Fore
SplineSet
118 996 m 257
 381 996 l 257
 381 0 l 257
 118 0 l 257
 118 996 l 257
EndSplineSet
EndChar

StartChar: e
Encoding: 101 101 102
GlifName: e
Width: 1063
VWidth: 0
GlyphClass: 2
Flags: HW
LayerCount: 2
Fore
SplineSet
330 446 m 257
 340 297 415 172 551 172 c 256
 651 172 719 245 749 329 c 257
 960 262 l 257
 913 113 765 -21 550 -21 c 256
 230 -21 67 242 67 498 c 256
 67 754 237 1016 548 1016 c 256
 840 1016 996 754 996 470 c 258
 996 446 l 257
 330 446 l 257
336 598 m 257
 754 598 l 257
 734 723 669 822 551 822 c 256
 436 822 359 740 336 598 c 257
EndSplineSet
EndChar

StartChar: eight
Encoding: 56 56 107
GlifName: eight
Width: 1154
VWidth: 0
GlyphClass: 2
Flags: HW
LayerCount: 2
Fore
SplineSet
866 728 m 257
 968 652 1050 528 1050 388 c 256
 1050 128 857 -21 578 -21 c 256
 299 -21 105 127 105 388 c 256
 105 528 186 653 287 729 c 257
 219 790 164 909 164 1024 c 256
 164 1210 308 1400 578 1400 c 256
 848 1400 991 1210 991 1024 c 256
 991 909 935 789 866 728 c 257
364 400 m 256
 364 276 443 203 578 203 c 256
 713 203 791 276 791 400 c 256
 791 535 705 622 577 622 c 256
 444 622 364 538 364 400 c 256
750 1004 m 256
 750 1112 693 1186 578 1186 c 256
 463 1186 405 1112 405 1004 c 256
 405 890 462 821 577 821 c 256
 692 821 750 891 750 1004 c 256
EndSplineSet
EndChar

StartChar: eth
Encoding: 240 240 109
GlifName: eth
Width: 1116
VWidth: 0
GlyphClass: 2
Flags: HW
LayerCount: 2
Fore
SplineSet
558 822 m 256
 418 822 334 696 334 498 c 256
 334 300 418 172 558 172 c 256
 698 172 783 300 783 498 c 256
 783 696 698 822 558 822 c 256
558 1016 m 256
 640 1016 721 989 779 928 c 257
 739 1058 628 1197 558 1253 c 257
 413 1135 l 257
 326 1240 l 257
 451 1341 l 257
 400 1373 333 1402 274 1418 c 257
 326 1588 l 257
 411 1570 510 1518 596 1456 c 257
 730 1566 l 257
 815 1461 l 257
 699 1368 l 257
 948 1123 1046 851 1046 576 c 256
 1046 242 881 -20 558 -20 c 256
 235 -20 72 242 72 498 c 256
 72 754 234 1016 558 1016 c 256
EndSplineSet
EndChar

StartChar: exclam
Encoding: 33 33 110
GlifName: exclam
Width: 640
VWidth: 0
GlyphClass: 2
Flags: HW
LayerCount: 2
Fore
SplineSet
452 476 m 257
 189 476 l 257
 189 1380 l 257
 452 1380 l 257
 452 476 l 257
EndSplineSet
Refer: 160 46 N 1 0 0 1 32 0 2
EndChar

StartChar: f
Encoding: 102 102 112
GlifName: f
Width: 734
VWidth: 0
GlyphClass: 2
Flags: HW
LayerCount: 2
Fore
SplineSet
712 1484 m 257
 712 1294 l 257
 520 1294 l 258
 485 1294 460 1270 460 1230 c 258
 460 0 l 257
 197 0 l 257
 197 1182 l 258
 197 1341 329 1484 513 1484 c 257
 712 1484 l 257
EndSplineSet
Refer: 311 57354 N 1 0 0 1 -48 300 2
EndChar

StartChar: five
Encoding: 53 53 114
GlifName: five
Width: 1157
VWidth: 0
GlyphClass: 2
Flags: HW
LayerCount: 2
Fore
SplineSet
105 418 m 257
 364 418 l 257
 364 278 412 203 557 203 c 256
 723 203 790 290 790 486 c 256
 790 666 722 757 550 757 c 256
 444 757 345 691 280 628 c 257
 116 709 l 257
 178 1380 l 257
 1036 1380 l 257
 1036 1169 l 257
 398 1169 l 257
 372 878 l 257
 452 929 532 952 618 952 c 256
 860 952 1048 782 1048 486 c 256
 1048 169 872 -21 544 -21 c 256
 270 -21 105 145 105 418 c 257
EndSplineSet
EndChar

StartChar: four
Encoding: 52 52 115
GlifName: four
Width: 1223
VWidth: 0
GlyphClass: 2
Flags: HW
LayerCount: 2
Fore
SplineSet
685 504 m 257
 685 1054 l 257
 289 504 l 257
 685 504 l 257
1156 504 m 257
 1156 300 l 257
 947 300 l 257
 947 0 l 257
 685 0 l 257
 685 300 l 257
 76 300 l 257
 76 511 l 257
 694 1380 l 257
 947 1380 l 257
 947 504 l 257
 1156 504 l 257
EndSplineSet
EndChar

StartChar: g
Encoding: 103 103 116
GlifName: g
Width: 1202
VWidth: 0
GlyphClass: 2
Flags: HW
LayerCount: 2
Fore
SplineSet
807 996 m 257
 1070 996 l 257
 1070 109 l 258
 1070 -284 839 -449 536 -449 c 256
 364 -449 206 -410 92 -346 c 257
 170 -149 l 257
 260 -193 386 -228 500 -228 c 256
 664 -228 807 -154 807 60 c 258
 807 996 l 257
EndSplineSet
Refer: 316 57359 N -1 0 0 -1 1169 995 2
EndChar

StartChar: germandbls
Encoding: 223 223 117
GlifName: germandbls
Width: 1170
VWidth: 0
GlyphClass: 2
Flags: HW
LayerCount: 2
Fore
SplineSet
522 -8 m 257
 522 214 l 257
 772 214 837 220 837 284 c 256
 837 327 812 364 744 412 c 256
 678 459 562 541 562 694 c 256
 562 797 607 859 648 912 c 256
 683 958 712 1010 712 1074 c 256
 712 1179 656 1244 546 1244 c 256
 423 1244 382 1171 382 1050 c 258
 382 0 l 257
 139 0 l 257
 139 1050 l 258
 139 1251 266 1454 546 1454 c 256
 818 1454 954 1254 954 1050 c 256
 954 940 906 837 848 788 c 256
 818 760 800 737 800 704 c 256
 800 664 834 630 892 588 c 256
 966 534 1080 436 1080 278 c 256
 1080 7 852 -8 522 -8 c 257
EndSplineSet
EndChar

StartChar: grave
Encoding: 96 96 118
GlifName: grave
Width: 550
VWidth: 0
GlyphClass: 2
Flags: HW
LayerCount: 2
Fore
SplineSet
430 1076 m 257
 337 1016 l 257
 120 1362 l 257
 213 1421 l 257
 430 1076 l 257
EndSplineSet
EndChar

StartChar: greater
Encoding: 62 62 119
GlifName: greater
Width: 837
VWidth: 0
GlyphClass: 2
Flags: HW
LayerCount: 2
Fore
SplineSet
250 188 m 257
 124 318 l 257
 516 688 l 257
 124 1059 l 257
 250 1188 l 257
 778 688 l 257
 250 188 l 257
EndSplineSet
EndChar

StartChar: h
Encoding: 104 104 122
GlifName: h
Width: 1192
VWidth: 0
GlyphClass: 2
Flags: HW
LayerCount: 2
Fore
SplineSet
389 0 m 257
 126 0 l 257
 126 1484 l 257
 389 1484 l 257
 389 0 l 257
EndSplineSet
Refer: 314 57357 N 1 0 0 1 47 0 2
EndChar

StartChar: hyphen
Encoding: 45 45 123
GlifName: hyphen
Width: 1010
VWidth: 0
GlyphClass: 2
Flags: HW
LayerCount: 2
Fore
SplineSet
924 690 m 257
 924 498 l 257
 87 498 l 257
 87 690 l 257
 924 690 l 257
EndSplineSet
EndChar

StartChar: k
Encoding: 107 107 130
GlifName: k
Width: 1105
VWidth: 0
GlyphClass: 2
Flags: HW
LayerCount: 2
Fore
SplineSet
755 996 m 257
 1084 996 l 257
 662 514 l 257
 1084 0 l 257
 756 0 l 257
 515 347 l 257
 395 213 l 257
 395 0 l 257
 134 0 l 257
 134 1484 l 257
 395 1484 l 257
 395 543 l 257
 755 996 l 257
EndSplineSet
EndChar

StartChar: l
Encoding: 108 108 131
GlifName: l
Width: 546
VWidth: 0
GlyphClass: 2
Flags: HW
LayerCount: 2
Fore
SplineSet
405 0 m 257
 142 0 l 257
 142 1484 l 257
 405 1484 l 257
 405 0 l 257
EndSplineSet
EndChar

StartChar: less
Encoding: 60 60 132
GlifName: less
Width: 837
VWidth: 0
GlyphClass: 2
Flags: HW
LayerCount: 2
Fore
SplineSet
580 1188 m 257
 706 1059 l 257
 314 688 l 257
 706 318 l 257
 580 188 l 257
 52 688 l 257
 580 1188 l 257
EndSplineSet
EndChar

StartChar: logicalnot
Encoding: 172 172 133
GlifName: logicalnot
Width: 1094
VWidth: 0
GlyphClass: 2
Flags: HW
LayerCount: 2
Fore
SplineSet
82 490 m 257
 82 682 l 257
 932 682 l 257
 932 245 l 257
 733 245 l 257
 733 490 l 257
 82 490 l 257
EndSplineSet
EndChar

StartChar: m
Encoding: 109 109 134
GlifName: m
Width: 1760
VWidth: 0
GlyphClass: 2
Flags: HW
LayerCount: 2
Fore
SplineSet
129 996 m 257
 391 996 l 257
 391 0 l 257
 129 0 l 257
 129 996 l 257
EndSplineSet
Refer: 313 57356 N 1 0 0 1 -547 0 2
Refer: 313 57356 N 1 0 0 1 82 0 2
EndChar

StartChar: mu
Encoding: 181 181 136
GlifName: mu
Width: 1192
VWidth: 0
GlyphClass: 2
Flags: HW
LayerCount: 2
Fore
SplineSet
126 996 m 257
 389 996 l 257
 389 -431 l 257
 126 -431 l 257
 126 996 l 257
EndSplineSet
Refer: 189 117 N 1 0 0 1 0 0 2
EndChar

StartChar: multiply
Encoding: 215 215 137
GlifName: multiply
Width: 1023
VWidth: 0
GlyphClass: 2
Flags: HW
LayerCount: 2
Fore
SplineSet
762 983 m 257
 899 847 l 257
 648 597 l 257
 899 346 l 257
 763 211 l 257
 512 461 l 257
 262 210 l 257
 126 346 l 257
 377 597 l 257
 126 847 l 257
 262 984 l 257
 512 732 l 257
 762 983 l 257
EndSplineSet
EndChar

StartChar: n
Encoding: 110 110 138
GlifName: n
Width: 1192
VWidth: 0
GlyphClass: 2
Flags: HW
LayerCount: 2
Fore
SplineSet
389 0 m 257
 126 0 l 257
 126 996 l 257
 389 996 l 257
 389 0 l 257
EndSplineSet
Refer: 314 57357 N 1 0 0 1 47 0 2
EndChar

StartChar: nine
Encoding: 57 57 139
GlifName: nine
Width: 1165
VWidth: 0
GlyphClass: 2
Flags: HW
LayerCount: 2
Fore
SplineSet
564 688 m 256
 662 688 764 733 830 796 c 257
 820 1033 745 1176 587 1176 c 256
 429 1176 364 1075 364 925 c 256
 364 784 434 688 564 688 c 256
537 464 m 256
 305 464 105 633 105 910 c 256
 105 1197 290 1400 580 1400 c 256
 966 1400 1084 1079 1084 712 c 256
 1084 304 908 -21 520 -21 c 256
 329 -21 216 64 128 169 c 257
 253 309 l 257
 321 247 417 203 517 203 c 256
 707 203 810 331 819 561 c 257
 739 503 634 464 537 464 c 256
EndSplineSet
EndChar

StartChar: numbersign
Encoding: 35 35 141
GlifName: numbersign
Width: 1770
VWidth: 0
GlyphClass: 2
Flags: HW
LayerCount: 2
Fore
SplineSet
1073 866 m 257
 772 866 l 257
 685 551 l 257
 986 551 l 257
 1073 866 l 257
533 0 m 257
 297 0 l 257
 398 367 l 257
 158 367 l 257
 158 551 l 257
 449 551 l 257
 536 866 l 257
 256 866 l 257
 256 1048 l 257
 586 1048 l 257
 683 1396 l 257
 918 1396 l 257
 823 1048 l 257
 1124 1048 l 257
 1221 1396 l 257
 1456 1396 l 257
 1360 1048 l 257
 1614 1048 l 257
 1614 866 l 257
 1310 866 l 257
 1223 551 l 257
 1516 551 l 257
 1516 367 l 257
 1173 367 l 257
 1071 0 l 257
 834 0 l 257
 936 367 l 257
 635 367 l 257
 533 0 l 257
EndSplineSet
EndChar

StartChar: o
Encoding: 111 111 142
GlifName: o
Width: 1116
VWidth: 0
GlyphClass: 2
Flags: HW
LayerCount: 2
Fore
SplineSet
558 822 m 256
 418 822 334 696 334 498 c 256
 334 300 418 172 558 172 c 256
 698 172 783 300 783 498 c 256
 783 696 698 822 558 822 c 256
558 1016 m 256
 882 1016 1046 754 1046 498 c 256
 1046 242 881 -20 558 -20 c 256
 235 -20 72 242 72 498 c 256
 72 754 234 1016 558 1016 c 256
EndSplineSet
EndChar

StartChar: one
Encoding: 49 49 148
GlifName: one
Width: 939
VWidth: 0
GlyphClass: 2
Flags: HW
LayerCount: 2
Fore
SplineSet
480 934 m 257
 428 922 372 914 308 914 c 258
 184 914 l 257
 184 1120 l 257
 370 1120 l 258
 438 1120 471 1131 482 1193 c 257
 480 1380 l 257
 743 1380 l 257
 743 0 l 257
 480 0 l 257
 480 934 l 257
EndSplineSet
EndChar

StartChar: onehalf
Encoding: 189 189 149
GlifName: onehalf
Width: 2287
VWidth: 0
GlyphClass: 2
Flags: HW
LayerCount: 2
Fore
SplineSet
658 -125 m 257
 460 -6 l 257
 1510 1616 l 257
 1707 1496 l 257
 658 -125 l 257
2220 -199 m 257
 2220 -423 l 257
 1340 -423 l 257
 1340 -232 l 257
 1878 291 l 258
 1940 351 1972 400 1972 482 c 256
 1972 593 1897 669 1788 669 c 256
 1668 669 1596 587 1596 430 c 257
 1342 430 l 257
 1342 711 1535 892 1780 892 c 256
 1999 892 2220 742 2220 470 c 256
 2220 307 2146 201 2066 125 c 257
 1740 -199 l 257
 2220 -199 l 257
118 1293 m 257
 118 1500 l 257
 256 1500 l 258
 336 1500 353 1512 363 1578 c 257
 363 1740 l 257
 626 1740 l 257
 626 548 l 257
 363 548 l 257
 363 1316 l 257
 311 1299 255 1293 191 1293 c 258
 118 1293 l 257
EndSplineSet
EndChar

StartChar: onequarter
Encoding: 188 188 150
GlifName: onequarter
Width: 2102
VWidth: 0
GlyphClass: 2
Flags: HW
LayerCount: 2
Fore
SplineSet
2016 65 m 257
 2016 -139 l 257
 1873 -139 l 257
 1873 -385 l 257
 1610 -385 l 257
 1610 -139 l 257
 1069 -139 l 257
 1069 66 l 257
 1621 860 l 257
 1873 860 l 257
 1873 65 l 257
 2016 65 l 257
1610 65 m 257
 1610 529 l 257
 1284 65 l 257
 1610 65 l 257
659 -125 m 257
 461 -6 l 257
 1510 1616 l 257
 1708 1496 l 257
 659 -125 l 257
118 1292 m 257
 118 1500 l 257
 253 1500 l 258
 335 1500 356 1512 366 1576 c 257
 363 1739 l 257
 626 1739 l 257
 626 548 l 257
 363 548 l 257
 363 1316 l 257
 313 1300 257 1292 191 1292 c 258
 118 1292 l 257
EndSplineSet
EndChar

StartChar: ordfeminine
Encoding: 170 170 151
GlifName: ordfeminine
Width: 783
VWidth: 0
GlyphClass: 2
Flags: HW
LayerCount: 2
Fore
SplineSet
688 1318 m 258
 688 897 l 257
 504 897 l 257
 504 996 l 257
 461 930 394 882 294 882 c 256
 176 882 96 952 96 1072 c 256
 96 1237 261 1310 424 1310 c 256
 452 1310 479 1308 504 1304 c 257
 504 1320 l 258
 504 1403 473 1467 385 1467 c 256
 310 1467 274 1414 248 1366 c 257
 115 1430 l 257
 159 1527 242 1609 396 1609 c 256
 554 1609 688 1516 688 1318 c 258
504 1133 m 257
 504 1202 l 257
 482 1206 459 1208 436 1208 c 256
 348 1208 261 1166 261 1095 c 256
 261 1050 291 1025 348 1025 c 256
 424 1025 482 1069 504 1133 c 257
EndSplineSet
EndChar

StartChar: p
Encoding: 112 112 155
GlifName: p
Width: 1195
VWidth: 0
GlyphClass: 2
Flags: HW
LayerCount: 2
Fore
SplineSet
134 993 m 257
 396 993 l 257
 396 -431 l 257
 134 -431 l 257
 134 993 l 257
EndSplineSet
Refer: 316 57359 N 1 0 0 1 34 0 2
EndChar

StartChar: paragraph
Encoding: 182 182 156
GlifName: paragraph
Width: 1400
VWidth: 0
GlyphClass: 2
Flags: HW
LayerCount: 2
Fore
SplineSet
744 1155 m 257
 621 1155 l 258
 499 1155 368 1051 368 844 c 256
 368 637 499 534 621 534 c 258
 744 534 l 257
 744 1155 l 257
1278 -431 m 257
 1078 -431 l 257
 1078 1155 l 257
 944 1155 l 257
 944 -431 l 257
 744 -431 l 257
 744 312 l 257
 621 312 l 258
 323 312 105 552 105 844 c 256
 105 1136 323 1379 621 1379 c 258
 1278 1379 l 257
 1278 -431 l 257
EndSplineSet
EndChar

StartChar: parenleft
Encoding: 40 40 157
GlifName: parenleft
Width: 568
VWidth: 0
GlyphClass: 2
Flags: HW
LayerCount: 2
Fore
SplineSet
504 -38 m 257
 338 -146 l 257
 172 101 66 350 66 712 c 256
 66 1074 172 1323 338 1570 c 257
 504 1462 l 257
 358 1235 294 1005 294 712 c 256
 294 419 358 189 504 -38 c 257
EndSplineSet
EndChar

StartChar: parenright
Encoding: 41 41 158
GlifName: parenright
Width: 568
VWidth: 0
GlyphClass: 2
Flags: HW
LayerCount: 2
Fore
SplineSet
66 1462 m 257
 230 1570 l 257
 396 1323 504 1074 504 712 c 256
 504 350 396 101 230 -146 c 257
 66 -38 l 257
 212 189 275 419 275 712 c 256
 275 1005 212 1235 66 1462 c 257
EndSplineSet
EndChar

StartChar: period
Encoding: 46 46 160
GlifName: period
Width: 577
VWidth: 0
GlyphClass: 2
Flags: HW
LayerCount: 2
Fore
SplineSet
144 142 m 256
 144 221 210 283 289 283 c 256
 368 283 434 221 434 142 c 256
 434 63 368 0 289 0 c 256
 210 0 144 63 144 142 c 256
EndSplineSet
EndChar

StartChar: plus
Encoding: 43 43 162
GlifName: plus
Width: 1010
VWidth: 0
GlyphClass: 2
Flags: HW
LayerCount: 2
Fore
SplineSet
924 658 m 257
 924 466 l 257
 613 466 l 257
 613 143 l 257
 398 143 l 257
 398 466 l 257
 87 466 l 257
 87 658 l 257
 398 658 l 257
 398 980 l 257
 613 980 l 257
 613 658 l 257
 924 658 l 257
EndSplineSet
EndChar

StartChar: q
Encoding: 113 113 164
GlifName: q
Width: 1195
VWidth: 0
GlyphClass: 2
Flags: HW
LayerCount: 2
Fore
SplineSet
799 996 m 257
 1061 996 l 257
 1061 -431 l 257
 799 -431 l 257
 799 996 l 257
EndSplineSet
Refer: 316 57359 N -1 0 0 -1 1161 996 2
EndChar

StartChar: question
Encoding: 63 63 165
GlifName: question
Width: 1100
VWidth: 0
GlyphClass: 2
Flags: HW
LayerCount: 2
Fore
SplineSet
536 0 m 256
 457 0 391 63 391 142 c 256
 391 221 457 283 536 283 c 256
 615 283 680 221 680 142 c 256
 680 63 615 0 536 0 c 256
375 892 m 257
 142 863 l 257
 135 906 127 960 127 999 c 256
 127 1201 266 1400 546 1400 c 256
 824 1400 974 1189 974 972 c 256
 974 835 894 753 809 684 c 256
 727 617 653 552 653 426 c 257
 410 426 l 257
 410 576 497 660 583 739 c 256
 664 813 732 887 732 1008 c 256
 732 1106 658 1192 546 1192 c 256
 417 1192 362 1107 362 999 c 256
 362 962 367 926 375 892 c 257
EndSplineSet
EndChar

StartChar: quoteleft
Encoding: 8216 8216 170
GlifName: quoteleft
Width: 599
VWidth: 0
GlyphClass: 2
Flags: HW
LayerCount: 2
Fore
SplineSet
467 1369 m 256
 467 1259 374 1201 270 1209 c 257
 288 1126 356 1041 421 974 c 257
 332 890 l 257
 220 993 133 1128 133 1308 c 256
 133 1450 205 1530 308 1530 c 256
 405 1530 467 1457 467 1369 c 256
EndSplineSet
EndChar

StartChar: quoteright
Encoding: 8217 8217 171
GlifName: quoteright
Width: 599
VWidth: 0
GlyphClass: 2
Flags: HW
LayerCount: 2
Fore
SplineSet
133 1369 m 256
 133 1457 195 1530 292 1530 c 256
 395 1530 467 1450 467 1308 c 256
 467 1128 379 993 267 890 c 257
 178 974 l 257
 243 1041 312 1126 330 1209 c 257
 226 1201 133 1259 133 1369 c 256
EndSplineSet
EndChar

StartChar: quotesingle
Encoding: 39 39 172
GlifName: quotesingle
Width: 420
VWidth: 0
GlyphClass: 2
Flags: HW
LayerCount: 2
Fore
SplineSet
129 1380 m 257
 292 1380 l 257
 292 830 l 257
 129 830 l 257
 129 1380 l 257
EndSplineSet
EndChar

StartChar: r
Encoding: 114 114 173
GlifName: r
Width: 796
VWidth: 0
GlyphClass: 2
Flags: HW
LayerCount: 2
Fore
SplineSet
134 996 m 257
 396 996 l 257
 396 0 l 257
 134 0 l 257
 134 996 l 257
EndSplineSet
Refer: 315 57358 N 1 0 0 1 56 -213 2
EndChar

StartChar: registered
Encoding: 174 174 174
GlifName: registered
Width: 1724
VWidth: 0
GlyphClass: 2
Flags: HW
LayerCount: 2
Fore
SplineSet
110 718 m 256
 110 1120 440 1457 863 1457 c 256
 1286 1457 1614 1120 1614 718 c 256
 1614 317 1287 -24 863 -24 c 256
 439 -24 110 317 110 718 c 256
338 718 m 256
 338 415 582 184 863 184 c 256
 1144 184 1388 415 1388 718 c 256
 1388 1020 1144 1251 863 1251 c 256
 582 1251 338 1020 338 718 c 256
752 696 m 257
 880 696 l 258
 961 696 1024 744 1024 822 c 256
 1024 901 961 950 880 950 c 258
 752 950 l 257
 752 696 l 257
1169 389 m 257
 999 376 l 257
 842 568 l 257
 752 568 l 257
 752 382 l 257
 618 382 l 257
 618 1076 l 257
 880 1076 l 258
 1038 1076 1171 970 1171 822 c 256
 1171 714 1099 629 1003 592 c 257
 1169 389 l 257
EndSplineSet
EndChar

StartChar: s
Encoding: 115 115 175
GlifName: s
Width: 957
VWidth: 0
GlyphClass: 2
Flags: HW
LayerCount: 2
Fore
SplineSet
883 821 m 257
 676 706 l 257
 640 760 591 822 487 822 c 256
 409 822 354 776 354 720 c 256
 354 650 432 622 548 595 c 256
 706 559 884 487 884 283 c 256
 884 75 680 -22 484 -22 c 256
 291 -22 157 46 71 148 c 257
 268 291 l 257
 314 234 390 171 502 171 c 256
 583 171 639 203 639 266 c 256
 639 351 555 383 420 416 c 256
 268 453 115 521 115 701 c 256
 115 891 299 1016 502 1016 c 256
 686 1016 810 935 883 821 c 257
EndSplineSet
EndChar

StartChar: section
Encoding: 167 167 176
GlifName: section
Width: 965
VWidth: 0
GlyphClass: 2
Flags: HW
LayerCount: 2
Fore
SplineSet
892 700 m 256
 892 604 847 535 783 489 c 257
 843 445 887 381 887 282 c 256
 887 74 682 -22 486 -22 c 256
 293 -22 160 46 74 148 c 257
 270 290 l 257
 316 233 392 170 504 170 c 256
 585 170 642 202 642 265 c 256
 642 353 561 374 421 408 c 256
 270 444 117 500 117 679 c 256
 117 769 161 847 229 901 c 257
 167 942 123 1003 123 1097 c 256
 123 1287 307 1412 510 1412 c 256
 694 1412 819 1330 892 1216 c 257
 684 1102 l 257
 648 1156 600 1218 496 1218 c 256
 418 1218 362 1172 362 1116 c 256
 362 1045 440 1025 560 998 c 256
 719 962 892 902 892 700 c 256
647 691 m 256
 647 757 589 807 499 807 c 256
 420 807 356 760 356 694 c 256
 356 633 427 592 506 592 c 256
 588 592 647 628 647 691 c 256
EndSplineSet
EndChar

StartChar: seven
Encoding: 55 55 178
GlifName: seven
Width: 1101
VWidth: 0
GlyphClass: 2
Flags: HW
LayerCount: 2
Fore
SplineSet
74 1155 m 257
 74 1380 l 257
 862 1380 l 257
 1020 1208 l 257
 462 -41 l 257
 224 64 l 257
 723 1155 l 257
 74 1155 l 257
EndSplineSet
EndChar

StartChar: simpledot
Encoding: 1114122 -1 179
GlifName: simpledot
Width: 2711
VWidth: 0
GlyphClass: 2
Flags: HW
LayerCount: 2
Fore
SplineSet
1086 188 m 257
 1247 350 l 257
 1408 188 l 257
 1247 27 l 257
 1086 188 l 257
EndSplineSet
EndChar

StartChar: six
Encoding: 54 54 180
GlifName: six
Width: 1165
VWidth: 0
GlyphClass: 2
Flags: HW
LayerCount: 2
Fore
SplineSet
625 692 m 256
 527 692 426 647 360 584 c 257
 370 347 444 203 602 203 c 256
 760 203 826 304 826 454 c 256
 826 595 755 692 625 692 c 256
652 916 m 256
 884 916 1084 747 1084 470 c 256
 1084 183 899 -21 609 -21 c 256
 223 -21 105 300 105 667 c 256
 105 1075 280 1400 668 1400 c 256
 859 1400 973 1316 1061 1211 c 257
 936 1070 l 257
 868 1132 772 1176 672 1176 c 256
 482 1176 379 1048 370 818 c 257
 450 876 555 916 652 916 c 256
EndSplineSet
EndChar

StartChar: slash
Encoding: 47 47 181
GlifName: slash
Width: 1102
VWidth: 0
GlyphClass: 2
Flags: HW
LayerCount: 2
Fore
SplineSet
785 1406 m 257
 1030 1280 l 257
 334 -28 l 257
 90 99 l 257
 785 1406 l 257
EndSplineSet
EndChar

StartChar: sterling
Encoding: 163 163 183
GlifName: sterling
Width: 1251
VWidth: 0
GlyphClass: 2
Flags: HW
LayerCount: 2
Fore
SplineSet
647 1161 m 256
 591 1161 530 1113 530 1031 c 258
 530 332 l 258
 530 294 524 255 509 223 c 257
 1141 223 l 257
 1141 0 l 257
 110 0 l 257
 110 223 l 257
 211 223 267 242 267 332 c 258
 267 1015 l 258
 267 1209 425 1385 647 1385 c 256
 869 1385 1002 1238 1030 1042 c 257
 771 1006 l 257
 763 1090 723 1161 647 1161 c 256
EndSplineSet
Refer: 311 57354 N 1 0 0 1 29 -22 2
EndChar

StartChar: t
Encoding: 116 116 184
GlifName: t
Width: 748
VWidth: 0
GlyphClass: 2
Flags: HW
LayerCount: 2
Fore
SplineSet
710 191 m 257
 710 0 l 257
 510 0 l 257
 326 0 194 144 194 303 c 258
 194 1312 l 257
 456 1312 l 257
 456 256 l 258
 456 216 483 191 518 191 c 258
 710 191 l 257
EndSplineSet
Refer: 311 57354 N 1 0 0 1 -58 321 2
EndChar

StartChar: three
Encoding: 51 51 186
GlifName: three
Width: 1176
VWidth: 0
GlyphClass: 2
Flags: HW
LayerCount: 2
Fore
SplineSet
74 446 m 257
 332 446 l 257
 332 278 401 203 569 203 c 256
 706 203 810 255 810 392 c 256
 810 545 712 616 561 616 c 258
 444 616 l 257
 444 827 l 257
 561 827 l 258
 685 827 774 893 774 1005 c 256
 774 1119 694 1188 582 1188 c 256
 435 1188 386 1116 386 970 c 257
 128 970 l 257
 128 1254 311 1412 582 1412 c 256
 798 1412 1026 1271 1026 1005 c 256
 1026 903 963 786 856 727 c 257
 969 675 1062 541 1062 392 c 256
 1062 116 836 -21 569 -21 c 256
 275 -21 74 140 74 446 c 257
EndSplineSet
EndChar

StartChar: threequarters
Encoding: 190 190 187
GlifName: threequarters
Width: 2373
VWidth: 0
GlyphClass: 2
Flags: HW
LayerCount: 2
Fore
SplineSet
2143 65 m 257
 2287 65 l 257
 2287 -139 l 257
 2143 -139 l 257
 2143 -385 l 257
 1881 -385 l 257
 1881 -139 l 257
 1339 -139 l 257
 1339 66 l 257
 1892 860 l 257
 2143 860 l 257
 2143 65 l 257
1881 65 m 257
 1881 528 l 257
 1555 65 l 257
 1881 65 l 257
105 889 m 257
 355 889 l 257
 355 744 421 685 553 685 c 256
 668 685 751 737 751 846 c 256
 751 980 674 1037 542 1037 c 258
 425 1037 l 257
 425 1243 l 257
 542 1243 l 258
 656 1243 728 1301 728 1406 c 256
 728 1500 659 1564 561 1564 c 256
 441 1564 392 1506 392 1376 c 257
 141 1376 l 257
 141 1635 321 1783 561 1783 c 256
 761 1783 972 1647 972 1406 c 256
 972 1298 907 1193 826 1145 c 257
 922 1095 996 973 996 846 c 256
 996 605 797 467 553 467 c 256
 297 467 105 615 105 889 c 257
929 -125 m 257
 731 -6 l 257
 1780 1616 l 257
 1978 1496 l 257
 929 -125 l 257
EndSplineSet
EndChar

StartChar: two
Encoding: 50 50 188
GlifName: two
Width: 1100
VWidth: 0
GlyphClass: 2
Flags: HW
LayerCount: 2
Fore
SplineSet
1019 0 m 257
 82 0 l 257
 82 167 l 258
 82 434 258 544 458 624 c 256
 634 694 756 756 756 925 c 256
 756 1089 670 1175 535 1175 c 256
 391 1175 326 1067 326 907 c 257
 82 907 l 257
 82 1200 270 1399 549 1399 c 256
 811 1399 1015 1212 1015 948 c 256
 1015 659 817 554 631 474 c 256
 449 397 344 316 344 230 c 258
 344 223 l 257
 1019 223 l 257
 1019 0 l 257
EndSplineSet
EndChar

StartChar: u
Encoding: 117 117 189
GlifName: u
Width: 1192
VWidth: 0
GlyphClass: 2
Flags: HW
LayerCount: 2
Fore
SplineSet
804 996 m 257
 1067 996 l 257
 1067 0 l 257
 804 0 l 257
 804 996 l 257
EndSplineSet
Refer: 314 57357 N -1 0 0 -1 1145 996 2
EndChar

StartChar: underscore
Encoding: 95 95 194
GlifName: underscore
Width: 699
VWidth: 0
GlyphClass: 2
Flags: HW
LayerCount: 2
Fore
SplineSet
739 260 m 257
 739 -2 l 257
 -40 -2 l 257
 -40 260 l 257
 739 260 l 257
EndSplineSet
EndChar

StartChar: uni00AD
Encoding: 173 173 196
GlifName: uni00A_D_
Width: 1010
VWidth: 0
GlyphClass: 2
Flags: HW
LayerCount: 2
Fore
SplineSet
924 690 m 257
 924 498 l 257
 87 498 l 257
 87 690 l 257
 924 690 l 257
EndSplineSet
EndChar

StartChar: uni00B2
Encoding: 178 178 197
GlifName: uni00B_2
Width: 691
VWidth: 0
GlyphClass: 2
Flags: HW
LayerCount: 2
Fore
SplineSet
118 944 m 257
 118 1051 l 257
 411 1303 l 258
 440 1332 452 1347 452 1395 c 256
 452 1467 404 1499 341 1499 c 256
 274 1499 229 1465 229 1387 c 257
 118 1387 l 257
 118 1538 231 1610 341 1610 c 256
 446 1610 563 1540 563 1395 c 256
 563 1315 526 1259 488 1225 c 258
 282 1055 l 257
 566 1055 l 257
 566 944 l 257
 118 944 l 257
EndSplineSet
EndChar

StartChar: uni00B3
Encoding: 179 179 198
GlifName: uni00B_3
Width: 636
VWidth: 0
GlyphClass: 2
Flags: HW
LayerCount: 2
Fore
SplineSet
213 1405 m 257
 103 1405 l 257
 103 1526 201 1609 318 1609 c 256
 430 1609 534 1529 534 1413 c 256
 534 1356 508 1298 452 1272 c 257
 507 1246 534 1189 534 1132 c 256
 534 1016 430 936 318 936 c 256
 201 936 103 1018 103 1139 c 257
 213 1139 l 257
 213 1091 249 1046 318 1046 c 256
 382 1046 424 1090 424 1132 c 256
 424 1174 382 1221 318 1221 c 258
 246 1221 l 257
 246 1323 l 257
 318 1323 l 258
 382 1323 424 1371 424 1413 c 256
 424 1455 382 1498 318 1498 c 256
 249 1498 213 1453 213 1405 c 257
EndSplineSet
EndChar

StartChar: uni00B9
Encoding: 185 185 199
GlifName: uni00B_9
Width: 478
VWidth: 0
GlyphClass: 2
Flags: HW
LayerCount: 2
Fore
SplineSet
86 1381 m 257
 86 1491 l 257
 240 1491 l 257
 240 1594 l 257
 350 1594 l 257
 350 928 l 257
 240 928 l 257
 240 1381 l 257
 86 1381 l 257
EndSplineSet
EndChar

StartChar: uni0237
Encoding: 567 567 200
GlifName: uni0237
Width: 498
VWidth: 0
GlyphClass: 2
Flags: HW
LayerCount: 2
Fore
SplineSet
118 -120 m 258
 118 996 l 257
 381 996 l 257
 381 -120 l 258
 381 -279 248 -423 64 -423 c 258
 -122 -423 l 257
 -122 -184 l 257
 56 -184 l 258
 91 -184 118 -160 118 -120 c 258
EndSplineSet
EndChar

StartChar: uni060C
Encoding: 1548 1548 201
GlifName: uni060C_
Width: 580
VWidth: 0
GlyphClass: 2
Flags: HW
LayerCount: 2
Fore
SplineSet
458 163 m 256
 458 75 395 1 298 1 c 256
 195 1 124 72 124 226 c 256
 124 394 218 553 330 656 c 257
 420 574 l 257
 355 507 278 405 260 322 c 257
 359 330 458 273 458 163 c 256
EndSplineSet
EndChar

StartChar: uni0615
Encoding: 1557 1557 202
GlifName: uni0615
Width: 0
VWidth: 0
GlyphClass: 4
Flags: H
AnchorPoint: "Anchor-1" 0 1296 mark 0
AnchorPoint: "Anchor-4" 0 1296 mark 0
AnchorPoint: "Anchor-5" 0 1296 mark 0
AnchorPoint: "Anchor-1" 0 1652 basechar 0
LayerCount: 2
Fore
SplineSet
295 1804 m 256
 295 1608 57 1602 -162 1600 c 258
 -295 1600 l 257
 -295 1710 l 257
 -184 1710 l 257
 -184 2149 l 257
 -74 2149 l 257
 -74 1869 l 257
 -11 1935 57 1969 126 1969 c 256
 217 1969 295 1904 295 1804 c 256
-56 1712 m 257
 138 1720 184 1752 184 1804 c 256
 184 1841 166 1859 126 1859 c 256
 81 1859 8 1820 -56 1712 c 257
EndSplineSet
EndChar

StartChar: uni061F
Encoding: 1567 1567 204
GlifName: uni061F_
Width: 1104
VWidth: 0
GlyphClass: 2
Flags: HW
LayerCount: 2
Fore
SplineSet
568 283 m 256
 647 283 712 221 712 142 c 256
 712 63 647 0 568 0 c 256
 489 0 423 63 423 142 c 256
 423 221 489 283 568 283 c 256
693 426 m 257
 450 426 l 257
 450 552 376 617 294 684 c 256
 209 753 129 835 129 972 c 256
 129 1189 280 1400 558 1400 c 256
 838 1400 976 1201 976 999 c 256
 976 960 969 906 962 863 c 257
 728 892 l 257
 736 926 742 962 742 999 c 256
 742 1107 687 1192 558 1192 c 256
 446 1192 371 1106 371 1008 c 256
 371 887 439 813 520 739 c 256
 606 660 693 576 693 426 c 257
EndSplineSet
EndChar

StartChar: uni0660
Encoding: 1632 1632 256
GlifName: uni0660
Width: 920
VWidth: 0
GlyphClass: 2
Flags: HW
LayerCount: 2
Fore
SplineSet
460 677 m 256
 373 677 306 611 306 524 c 256
 306 437 374 368 460 368 c 256
 546 368 614 437 614 524 c 256
 614 610 547 677 460 677 c 256
460 888 m 256
 661 888 825 727 825 524 c 256
 825 322 664 157 460 157 c 256
 256 157 96 323 96 524 c 256
 96 726 258 888 460 888 c 256
EndSplineSet
PairPos2: "'kern' Horizontal Kerning in Arabic lookup 7 per glyph data 0" uni0661 dx=53 dy=0 dh=53 dv=0 dx=0 dy=0 dh=0 dv=0
PairPos2: "'kern' Horizontal Kerning in Arabic lookup 7 per glyph data 0" uni0667 dx=-105 dy=0 dh=-105 dv=0 dx=0 dy=0 dh=0 dv=0
PairPos2: "'kern' Horizontal Kerning in Arabic lookup 7 per glyph data 0" uni0666 dx=-26 dy=0 dh=-26 dv=0 dx=0 dy=0 dh=0 dv=0
PairPos2: "'kern' Horizontal Kerning in Arabic lookup 7 per glyph data 0" uni0662 dx=-131 dy=0 dh=-131 dv=0 dx=0 dy=0 dh=0 dv=0
EndChar

StartChar: uni0661
Encoding: 1633 1633 257
GlifName: uni0661
Width: 687
VWidth: 0
GlyphClass: 2
Flags: HW
LayerCount: 2
Fore
SplineSet
573 0 m 257
 310 0 l 257
 310 526 232 856 70 1314 c 257
 318 1401 l 257
 488 923 573 553 573 0 c 257
EndSplineSet
PairPos2: "'kern' Horizontal Kerning in Arabic lookup 7 per glyph data 0" uni0665 dx=-53 dy=0 dh=-53 dv=0 dx=0 dy=0 dh=0 dv=0
PairPos2: "'kern' Horizontal Kerning in Arabic lookup 7 per glyph data 0" uni0660 dx=-53 dy=0 dh=-53 dv=0 dx=0 dy=0 dh=0 dv=0
EndChar

StartChar: uni0662
Encoding: 1634 1634 258
GlifName: uni0662
Width: 1113
VWidth: 0
GlyphClass: 2
Flags: HW
LayerCount: 2
Fore
SplineSet
592 922 m 256
 742 922 760 1087 760 1398 c 257
 1022 1398 l 257
 1022 1128 1020 659 614 659 c 256
 582 659 547 664 516 677 c 257
 555 454 573 256 573 0 c 257
 310 0 l 257
 310 537 208 906 70 1324 c 257
 321 1400 l 257
 418 1064 463 922 592 922 c 256
EndSplineSet
EndChar

StartChar: uni0663
Encoding: 1635 1635 259
GlifName: uni0663
Width: 1461
VWidth: 0
GlyphClass: 2
Flags: HW
LayerCount: 2
Fore
SplineSet
892 1348 m 257
 887 1272 884 1216 884 1132 c 256
 884 998 910 942 994 942 c 256
 1084 942 1106 1022 1106 1157 c 256
 1106 1226 1096 1301 1085 1356 c 257
 1342 1400 l 257
 1355 1337 1369 1260 1369 1158 c 256
 1369 904 1255 679 987 679 c 256
 877 679 810 727 756 794 c 257
 712 724 655 679 566 679 c 256
 545 679 527 683 510 691 c 257
 548 469 566 255 566 0 c 257
 303 0 l 257
 303 539 206 927 70 1318 c 257
 318 1400 l 257
 412 1047 446 942 537 942 c 256
 644 942 670 1095 680 1358 c 257
 892 1348 l 257
EndSplineSet
PairPos2: "'kern' Horizontal Kerning in Arabic lookup 7 per glyph data 0" uni0668 dx=-53 dy=0 dh=-53 dv=0 dx=0 dy=0 dh=0 dv=0
EndChar

StartChar: uni0664
Encoding: 1636 1636 260
GlifName: uni0664
Width: 1005
VWidth: 0
GlyphClass: 2
Flags: HW
LayerCount: 2
Fore
SplineSet
317 700 m 257
 212 745 152 824 152 945 c 256
 152 1227 450 1363 749 1400 c 257
 778 1147 l 257
 505 1109 419 1033 419 949 c 256
 419 861 496 823 783 823 c 257
 783 599 l 257
 544 599 355 536 355 386 c 256
 355 284 462 255 584 255 c 258
 915 255 l 257
 915 0 l 257
 571 0 l 258
 311 0 92 96 92 352 c 256
 92 500 169 621 317 700 c 257
EndSplineSet
PairPos2: "'kern' Horizontal Kerning in Arabic lookup 7 per glyph data 0" uni0666 dx=53 dy=0 dh=53 dv=0 dx=0 dy=0 dh=0 dv=0
EndChar

StartChar: uni0665
Encoding: 1637 1637 261
GlifName: uni0665
Width: 1227
VWidth: 0
GlyphClass: 2
Flags: HW
LayerCount: 2
Fore
SplineSet
510 1400 m 257
 802 1169 1144 863 1144 440 c 256
 1144 110 916 -21 618 -21 c 256
 332 -21 84 107 84 437 c 256
 84 686 226 914 453 1105 c 257
 423 1133 380 1171 344 1200 c 257
 510 1400 l 257
618 938 m 257
 418 758 347 595 347 448 c 256
 347 308 433 242 618 242 c 256
 804 242 881 299 881 450 c 256
 881 593 793 760 618 938 c 257
EndSplineSet
PairPos2: "'kern' Horizontal Kerning in Arabic lookup 7 per glyph data 0" uni0661 dx=53 dy=0 dh=53 dv=0 dx=0 dy=0 dh=0 dv=0
PairPos2: "'kern' Horizontal Kerning in Arabic lookup 7 per glyph data 0" uni0667 dx=-105 dy=0 dh=-105 dv=0 dx=0 dy=0 dh=0 dv=0
EndChar

StartChar: uni0666
Encoding: 1638 1638 262
GlifName: uni0666
Width: 1179
VWidth: 0
GlyphClass: 2
Flags: HW
LayerCount: 2
Fore
SplineSet
70 1143 m 257
 110 1403 l 257
 262 1384 415 1378 572 1378 c 256
 672 1378 763 1386 839 1400 c 257
 965 1288 l 257
 961 1185 957 1086 957 984 c 256
 957 584 998 390 1088 34 c 257
 832 -29 l 257
 738 337 694 565 694 984 c 256
 694 1029 695 1073 696 1120 c 257
 657 1118 620 1117 570 1117 c 256
 400 1117 229 1122 70 1143 c 257
EndSplineSet
PairPos2: "'kern' Horizontal Kerning in Arabic lookup 7 per glyph data 0" uni0664 dx=-53 dy=0 dh=-53 dv=0 dx=0 dy=0 dh=0 dv=0
PairPos2: "'kern' Horizontal Kerning in Arabic lookup 7 per glyph data 0" uni0665 dx=-184 dy=0 dh=-184 dv=0 dx=0 dy=0 dh=0 dv=0
PairPos2: "'kern' Horizontal Kerning in Arabic lookup 7 per glyph data 0" uni0660 dx=-210 dy=0 dh=-210 dv=0 dx=0 dy=0 dh=0 dv=0
PairPos2: "'kern' Horizontal Kerning in Arabic lookup 7 per glyph data 0" uni066B dx=-158 dy=0 dh=-158 dv=0 dx=0 dy=0 dh=0 dv=0
PairPos2: "'kern' Horizontal Kerning in Arabic lookup 7 per glyph data 0" uni0668 dx=-210 dy=0 dh=-210 dv=0 dx=0 dy=0 dh=0 dv=0
EndChar

StartChar: uni0667
Encoding: 1639 1639 263
GlifName: uni0667
Width: 1354
VWidth: 0
GlyphClass: 2
Flags: HW
LayerCount: 2
Fore
SplineSet
1090 1400 m 257
 1297 1238 l 257
 1032 896 872 652 793 0 c 257
 562 0 l 257
 487 620 339 872 57 1239 c 257
 266 1400 l 257
 463 1146 615 882 678 516 c 257
 741 883 892 1146 1090 1400 c 257
EndSplineSet
PairPos2: "'kern' Horizontal Kerning in Arabic lookup 7 per glyph data 0" uni0660 dx=-105 dy=0 dh=-105 dv=0 dx=0 dy=0 dh=0 dv=0
PairPos2: "'kern' Horizontal Kerning in Arabic lookup 7 per glyph data 0" uni0665 dx=-105 dy=0 dh=-105 dv=0 dx=0 dy=0 dh=0 dv=0
PairPos2: "'kern' Horizontal Kerning in Arabic lookup 7 per glyph data 0" uni0668 dx=-158 dy=0 dh=-158 dv=0 dx=0 dy=0 dh=0 dv=0
PairPos2: "'kern' Horizontal Kerning in Arabic lookup 7 per glyph data 0" uni066B dx=-131 dy=0 dh=-131 dv=0 dx=0 dy=0 dh=0 dv=0
EndChar

StartChar: uni0668
Encoding: 1640 1640 264
GlifName: uni0668
Width: 1354
VWidth: 0
GlyphClass: 2
Flags: HW
LayerCount: 2
Fore
SplineSet
264 -21 m 257
 57 141 l 257
 322 483 482 728 561 1380 c 257
 792 1380 l 257
 867 760 1015 507 1297 140 c 257
 1088 -20 l 257
 891 234 739 498 676 864 c 257
 613 497 462 233 264 -21 c 257
EndSplineSet
PairPos2: "'kern' Horizontal Kerning in Arabic lookup 7 per glyph data 0" uni0663 dx=-210 dy=0 dh=-210 dv=0 dx=0 dy=0 dh=0 dv=0
PairPos2: "'kern' Horizontal Kerning in Arabic lookup 7 per glyph data 0" uni0662 dx=-184 dy=0 dh=-184 dv=0 dx=0 dy=0 dh=0 dv=0
PairPos2: "'kern' Horizontal Kerning in Arabic lookup 7 per glyph data 0" uni0667 dx=-158 dy=0 dh=-158 dv=0 dx=0 dy=0 dh=0 dv=0
EndChar

StartChar: uni0669
Encoding: 1641 1641 265
GlifName: uni0669
Width: 1117
VWidth: 0
GlyphClass: 2
Flags: HW
LayerCount: 2
Fore
SplineSet
639 552 m 257
 589 540 540 533 490 533 c 256
 284 533 78 622 78 906 c 256
 78 1131 188 1399 474 1399 c 256
 782 1399 871 1127 873 870 c 256
 873 718 883 585 900 475 c 257
 915 312 952 202 1002 89 c 257
 760 -16 l 257
 688 173 652 354 639 552 c 257
619 810 m 257
 618 876 l 258
 616 1058 559 1137 475 1137 c 256
 395 1137 324 1062 324 924 c 256
 324 826 365 794 483 794 c 256
 533 794 577 801 619 810 c 257
EndSplineSet
PairPos2: "'kern' Horizontal Kerning in Arabic lookup 7 per glyph data 0" uni066B dx=210 dy=0 dh=210 dv=0 dx=0 dy=0 dh=0 dv=0
PairPos2: "'kern' Horizontal Kerning in Arabic lookup 7 per glyph data 0" uni0668 dx=-158 dy=0 dh=-158 dv=0 dx=0 dy=0 dh=0 dv=0
PairPos2: "'kern' Horizontal Kerning in Arabic lookup 7 per glyph data 0" uni0665 dx=-53 dy=0 dh=-53 dv=0 dx=0 dy=0 dh=0 dv=0
EndChar

StartChar: uni066B
Encoding: 1643 1643 267
GlifName: uni066B_
Width: 826
VWidth: 0
GlyphClass: 2
Flags: HW
LayerCount: 2
Fore
SplineSet
290 -615 m 257
 46 -520 l 257
 546 756 l 257
 790 661 l 257
 290 -615 l 257
EndSplineSet
PairPos2: "'kern' Horizontal Kerning in Arabic lookup 7 per glyph data 1" uni06F7 dx=-105 dy=0 dh=-105 dv=0 dx=0 dy=0 dh=0 dv=0
PairPos2: "'kern' Horizontal Kerning in Arabic lookup 7 per glyph data 1" uni06F0 dx=-53 dy=0 dh=-53 dv=0 dx=0 dy=0 dh=0 dv=0
PairPos2: "'kern' Horizontal Kerning in Arabic lookup 7 per glyph data 1" uni06F3 dx=-79 dy=0 dh=-79 dv=0 dx=0 dy=0 dh=0 dv=0
PairPos2: "'kern' Horizontal Kerning in Arabic lookup 7 per glyph data 1" uni06F2 dx=-105 dy=0 dh=-105 dv=0 dx=0 dy=0 dh=0 dv=0
PairPos2: "'kern' Horizontal Kerning in Arabic lookup 7 per glyph data 1" uni066B dx=-53 dy=0 dh=-53 dv=0 dx=0 dy=0 dh=0 dv=0
PairPos2: "'kern' Horizontal Kerning in Arabic lookup 7 per glyph data 0" uni0663 dx=-158 dy=0 dh=-158 dv=0 dx=0 dy=0 dh=0 dv=0
PairPos2: "'kern' Horizontal Kerning in Arabic lookup 7 per glyph data 0" uni0662 dx=-105 dy=0 dh=-105 dv=0 dx=0 dy=0 dh=0 dv=0
PairPos2: "'kern' Horizontal Kerning in Arabic lookup 7 per glyph data 0" uni0667 dx=-105 dy=0 dh=-105 dv=0 dx=0 dy=0 dh=0 dv=0
EndChar

StartChar: uni066C
Encoding: 1644 1644 268
GlifName: uni066C_
Width: 616
VWidth: 0
GlyphClass: 2
Flags: HW
LayerCount: 2
Fore
SplineSet
222 -322 m 257
 137 -228 l 257
 211 -161 286 -78 316 0 c 257
 243 0 135 64 135 172 c 256
 135 264 204 346 298 346 c 256
 394 346 481 283 481 136 c 256
 481 -50 362 -214 222 -322 c 257
EndSplineSet
EndChar

StartChar: uni066D
Encoding: 1645 1645 269
GlifName: uni066D_
Width: 955
VWidth: 0
GlyphClass: 2
Flags: HW
LayerCount: 2
Fore
SplineSet
570 691 m 257
 386 691 l 257
 393 994 l 257
 137 837 l 257
 43 997 l 257
 309 1140 l 257
 43 1286 l 257
 137 1446 l 257
 393 1288 l 257
 386 1590 l 257
 570 1590 l 257
 563 1288 l 257
 819 1446 l 257
 912 1286 l 257
 646 1140 l 257
 912 997 l 257
 819 837 l 257
 563 994 l 257
 570 691 l 257
EndSplineSet
EndChar

StartChar: uni06F4
Encoding: 1780 1780 295
GlifName: uni06F_4
Width: 1181
VWidth: 0
GlyphClass: 2
Flags: HW
LayerCount: 2
Fore
SplineSet
510 653 m 257
 549 409 564 254 564 0 c 257
 301 0 l 257
 301 514 199 877 70 1307 c 257
 326 1388 l 257
 362 1290 406 1144 433 1023 c 257
 463 1247 625 1400 814 1400 c 256
 902 1400 994 1375 1072 1328 c 257
 968 1088 l 257
 912 1124 867 1139 795 1139 c 256
 682 1139 582 1052 582 926 c 256
 582 816 684 792 805 792 c 256
 890 792 976 804 1056 823 c 257
 1084 564 l 257
 1003 542 927 532 858 532 c 256
 725 532 594 567 510 653 c 257
EndSplineSet
PairPos2: "'kern' Horizontal Kerning in Arabic lookup 7 per glyph data 1" uni06F0 dx=-26 dy=0 dh=-26 dv=0 dx=0 dy=0 dh=0 dv=0
PairPos2: "'kern' Horizontal Kerning in Arabic lookup 7 per glyph data 1" uni06F8 dx=-53 dy=0 dh=-53 dv=0 dx=0 dy=0 dh=0 dv=0
EndChar

StartChar: uni06F5
Encoding: 1781 1781 296
GlifName: uni06F_5
Width: 1268
VWidth: 0
GlyphClass: 2
Flags: HW
LayerCount: 2
Fore
SplineSet
638 97 m 257
 594 17 524 -16 419 -16 c 256
 213 -16 73 128 73 374 c 256
 73 622 195 862 468 1114 c 257
 442 1137 390 1179 360 1201 c 257
 504 1399 l 257
 577 1348 650 1297 715 1238 c 256
 1011 974 1196 677 1196 390 c 256
 1196 124 1057 -16 858 -16 c 256
 755 -16 688 17 638 97 c 257
585 401 m 257
 696 401 l 257
 708 352 l 258
 725 276 774 248 838 248 c 256
 891 248 950 277 950 396 c 256
 950 546 841 738 635 948 c 257
 389 738 319 546 319 410 c 256
 319 275 385 248 440 248 c 256
 509 248 556 279 572 349 c 258
 585 401 l 257
EndSplineSet
PairPos2: "'kern' Horizontal Kerning in Arabic lookup 7 per glyph data 1" uni06F1 dx=53 dy=0 dh=53 dv=0 dx=0 dy=0 dh=0 dv=0
PairPos2: "'kern' Horizontal Kerning in Arabic lookup 7 per glyph data 1" uni06F2 dx=-26 dy=0 dh=-26 dv=0 dx=0 dy=0 dh=0 dv=0
PairPos2: "'kern' Horizontal Kerning in Arabic lookup 7 per glyph data 1" uni06F3 dx=-26 dy=0 dh=-26 dv=0 dx=0 dy=0 dh=0 dv=0
PairPos2: "'kern' Horizontal Kerning in Arabic lookup 7 per glyph data 1" uni06F7 dx=-105 dy=0 dh=-105 dv=0 dx=0 dy=0 dh=0 dv=0
PairPos2: "'kern' Horizontal Kerning in Arabic lookup 7 per glyph data 1" uni06F9 dx=-79 dy=0 dh=-79 dv=0 dx=0 dy=0 dh=0 dv=0
EndChar

StartChar: uni06F6
Encoding: 1782 1782 297
GlifName: uni06F_6
Width: 1128
VWidth: 0
GlyphClass: 2
Flags: HW
LayerCount: 2
Fore
SplineSet
590 801 m 256
 715 801 834 860 924 911 c 257
 1067 688 l 257
 739 511 493 241 307 -32 c 257
 79 98 l 257
 206 289 318 422 467 560 c 257
 285 593 97 714 97 954 c 256
 97 1217 294 1422 552 1422 c 256
 728 1422 816 1360 912 1283 c 257
 748 1077 l 257
 696 1127 641 1158 552 1158 c 256
 437 1158 360 1078 360 964 c 256
 360 848 460 801 590 801 c 256
EndSplineSet
EndChar

StartChar: uniE000
Encoding: 57344 57344 301
GlifName: uniE_000
Width: 110
VWidth: 0
GlyphClass: 2
Flags: HW
LayerCount: 2
Fore
SplineSet
0 262 m 258
 110 262 l 257
 110 0 l 257
 0 0 l 258
 -72 0 -132 60 -132 132 c 256
 -132 204 -72 262 0 262 c 258
EndSplineSet
EndChar

StartChar: uniE001
Encoding: 57345 57345 302
GlifName: uniE_001
Width: 320
VWidth: 0
GlyphClass: 2
Flags: HW
LayerCount: 2
Fore
SplineSet
0 262 m 258
 320 262 l 257
 320 0 l 257
 0 0 l 258
 -72 0 -132 60 -132 132 c 256
 -132 204 -72 262 0 262 c 258
EndSplineSet
EndChar

StartChar: uniE002
Encoding: 57346 57346 303
GlifName: uniE_002
Width: 448
VWidth: 0
GlyphClass: 2
Flags: HW
LayerCount: 2
Fore
SplineSet
0 262 m 258
 449 262 l 257
 449 0 l 257
 0 0 l 258
 -72 0 -132 60 -132 132 c 256
 -132 204 -72 262 0 262 c 258
EndSplineSet
EndChar

StartChar: uniE003
Encoding: 57347 57347 304
GlifName: uniE_003
Width: 1850
VWidth: 0
GlyphClass: 2
Flags: HW
LayerCount: 2
Fore
SplineSet
1369 1412 m 257
 1498 1279 l 257
 205 -32 l 257
 77 100 l 257
 1369 1412 l 257
EndSplineSet
EndChar

StartChar: uniE004
Encoding: 57348 57348 305
GlifName: uniE_004
Width: 1142
VWidth: 0
GlyphClass: 2
Flags: HW
LayerCount: 2
Fore
SplineSet
146 -98 m 257
 16 -0 l 257
 860 1073 l 257
 990 974 l 257
 146 -98 l 257
EndSplineSet
EndChar

StartChar: uniE005
Encoding: 57349 57349 306
GlifName: uniE_005
Width: 1535
VWidth: 0
GlyphClass: 2
Flags: HW
LayerCount: 2
Fore
SplineSet
1464 60 m 257
 1323 -58 l 257
 839 528 l 257
 980 646 l 257
 1464 60 l 257
EndSplineSet
EndChar

StartChar: uniE006
Encoding: 57350 57350 307
GlifName: uniE_006
Width: 1203
VWidth: 0
GlyphClass: 2
Flags: HW
LayerCount: 2
Fore
SplineSet
224 170 m 257
 224 326 l 257
 979 326 l 257
 979 170 l 257
 224 170 l 257
224 454 m 257
 224 611 l 257
 979 611 l 257
 979 454 l 257
 224 454 l 257
EndSplineSet
EndChar

StartChar: uniE007
Encoding: 57351 57351 308
GlifName: uniE_007
Width: 912
VWidth: 0
GlyphClass: 2
Flags: HW
LayerCount: 2
Fore
SplineSet
598 1660 m 257
 568 1676 524 1689 490 1689 c 256
 410 1689 369 1634 369 1593 c 256
 369 1544 398 1532 473 1510 c 256
 536 1491 630 1456 630 1345 c 256
 630 1211 484 1151 364 1151 c 256
 292 1151 233 1166 179 1191 c 257
 225 1290 l 257
 262 1273 305 1261 364 1261 c 256
 464 1261 520 1300 520 1337 c 256
 520 1367 504 1383 436 1404 c 256
 368 1424 258 1464 258 1594 c 256
 258 1712 364 1800 490 1800 c 256
 550 1800 596 1781 640 1761 c 257
 598 1660 l 257
EndSplineSet
EndChar

StartChar: uniE008
Encoding: 57352 57352 309
GlifName: uniE_008
Width: 1527
VWidth: 0
GlyphClass: 2
Flags: HW
LayerCount: 2
Fore
SplineSet
533 1244 m 256
 533 1317 479 1374 412 1374 c 256
 345 1374 289 1315 289 1244 c 256
 289 1173 344 1118 412 1118 c 256
 479 1118 533 1173 533 1244 c 256
705 1244 m 256
 705 1082 577 948 412 948 c 256
 248 948 118 1082 118 1244 c 256
 118 1399 239 1546 412 1546 c 256
 586 1546 705 1398 705 1244 c 256
EndSplineSet
EndChar

StartChar: uniE009
Encoding: 57353 57353 310
GlifName: uniE_009
Width: 1203
VWidth: 0
GlyphClass: 2
Flags: HW
LayerCount: 2
Fore
SplineSet
533 1581 m 257
 655 1581 l 257
 655 -191 l 257
 533 -191 l 257
 533 1581 l 257
EndSplineSet
EndChar

StartChar: uniE00A
Encoding: 57354 57354 311
GlifName: uniE_00A_
Width: 1275
VWidth: 0
GlyphClass: 2
Flags: HW
LayerCount: 2
Fore
SplineSet
82 510 m 257
 82 679 l 257
 767 679 l 257
 767 510 l 257
 82 510 l 257
EndSplineSet
EndChar

StartChar: uniE00B
Encoding: 57355 57355 312
GlifName: uniE_00B_
Width: 1163
VWidth: 0
GlyphClass: 2
Flags: HW
LayerCount: 2
Fore
SplineSet
777 341 m 257
 732 165 629 -21 388 -21 c 256
 220 -21 104 78 104 249 c 256
 104 485 339 590 572 590 c 256
 664 590 737 573 814 551 c 257
 721 430 l 257
 681 438 636 444 590 444 c 256
 464 444 340 383 340 282 c 256
 340 218 383 182 464 182 c 256
 578 182 661 246 690 344 c 257
 777 341 l 257
EndSplineSet
EndChar

StartChar: uniE00C
Encoding: 57356 57356 313
GlifName: uniE_00C_
Width: 1613
VWidth: 0
GlyphClass: 2
Flags: HW
LayerCount: 2
Fore
SplineSet
860 686 m 257
 940 864 1037 1016 1266 1016 c 256
 1498 1016 1550 837 1550 616 c 258
 1550 0 l 257
 1288 0 l 257
 1288 572 l 258
 1288 691 1229 777 1115 777 c 256
 1007 777 962 718 920 635 c 257
 860 686 l 257
EndSplineSet
EndChar

StartChar: uniE00D
Encoding: 57357 57357 314
GlifName: uniE_00D_
Width: 1105
VWidth: 0
GlyphClass: 2
Flags: HW
LayerCount: 2
Fore
SplineSet
266 644 m 257
 370 862 460 1016 687 1016 c 256
 957 1016 1020 814 1020 574 c 258
 1020 0 l 257
 757 0 l 257
 757 526 l 258
 757 685 702 777 574 777 c 256
 458 777 397 698 341 588 c 257
 266 644 l 257
EndSplineSet
EndChar

StartChar: uniE00E
Encoding: 57358 57358 315
GlifName: uniE_00E_
Width: 791
VWidth: 0
GlyphClass: 2
Flags: HW
LayerCount: 2
Fore
SplineSet
342 584 m 257
 250 586 l 257
 261 871 338 1230 692 1230 c 258
 710 1230 l 257
 710 987 l 257
 637 987 l 258
 452 987 352 813 342 584 c 257
EndSplineSet
EndChar

StartChar: uniE00F
Encoding: 57359 57359 316
GlifName: uniE_00F_
Width: 1184
VWidth: 0
GlyphClass: 2
Flags: HW
LayerCount: 2
Fore
SplineSet
594 822 m 256
 447 822 363 688 363 498 c 256
 363 308 446 172 594 172 c 256
 742 172 826 308 826 498 c 256
 826 688 741 822 594 822 c 256
686 1016 m 256
 968 1016 1088 754 1088 498 c 256
 1088 242 967 -20 686 -20 c 256
 405 -20 283 242 283 498 c 256
 283 754 404 1016 686 1016 c 256
EndSplineSet
EndChar

StartChar: uniE020
Encoding: 57376 57376 326
GlifName: uniE_020
Width: 907
VWidth: 0
GlyphClass: 2
Flags: HW
LayerCount: 2
Fore
SplineSet
716 712 m 257
 574 594 l 257
 542 632 498 664 426 664 c 256
 347 664 276 600 276 509 c 256
 276 411 331 356 436 340 c 257
 758 470 l 257
 829 300 l 257
 150 19 l 257
 79 190 l 257
 237 256 l 257
 159 294 91 379 91 494 c 256
 91 705 243 849 426 849 c 256
 563 849 660 779 716 712 c 257
EndSplineSet
EndChar

StartChar: uniE021
Encoding: 57377 57377 327
GlifName: uniE_021
Width: 525
VWidth: 0
GlyphClass: 2
Flags: HW
LayerCount: 2
Fore
SplineSet
534 1821 m 257
 654 1764 l 257
 590 1618 514 1552 398 1552 c 256
 354 1552 302 1567 248 1585 c 256
 201 1601 157 1616 126 1616 c 256
 74 1616 38 1578 -12 1508 c 257
 -130 1578 l 257
 -60 1717 37 1789 142 1789 c 256
 189 1789 242 1774 301 1752 c 256
 348 1735 385 1722 416 1722 c 256
 454 1722 491 1742 534 1821 c 257
394 1380 m 257
 394 6 l 257
 131 6 l 257
 131 1380 l 257
 394 1380 l 257
EndSplineSet
EndChar

StartChar: uniE022
Encoding: 57378 57378 328
GlifName: uniE_022
Width: 525
VWidth: 0
GlyphClass: 2
Flags: HW
LayerCount: 2
Fore
SplineSet
394 6 m 257
 131 6 l 257
 131 1380 l 257
 394 1380 l 257
 394 6 l 257
EndSplineSet
EndChar

StartChar: uniE023
Encoding: 57379 57379 329
GlifName: uniE_023
Width: 1413
VWidth: 0
GlyphClass: 2
Flags: HW
LayerCount: 2
Fore
SplineSet
1289 -378 m 257
 1383 -623 l 257
 1199 -703 987 -748 768 -748 c 256
 388 -748 59 -582 59 -188 c 256
 59 240 494 470 950 602 c 257
 603 714 l 258
 568 726 537 731 509 731 c 256
 409 731 349 661 331 492 c 257
 102 531 l 257
 134 780 267 993 514 993 c 256
 574 993 640 982 714 952 c 257
 1318 732 l 257
 1318 459 l 257
 717 306 322 98 322 -188 c 256
 322 -387 500 -475 750 -475 c 256
 944 -475 1142 -435 1289 -378 c 257
EndSplineSet
EndChar

StartChar: uniE024
Encoding: 57380 57380 330
GlifName: uniE_024
Width: 982
VWidth: 0
GlyphClass: 2
Flags: HW
LayerCount: 2
Fore
SplineSet
923 394 m 256
 923 109 650 0 385 0 c 256
 269 0 152 18 54 44 c 257
 114 293 l 257
 179 277 280 262 377 262 c 256
 533 262 664 301 664 412 c 256
 664 525 556 688 340 870 c 257
 508 1070 l 257
 753 864 923 650 923 394 c 256
EndSplineSet
EndChar

StartChar: uniE025
Encoding: 57381 57381 331
GlifName: uniE_025
Width: 844
VWidth: 0
GlyphClass: 2
Flags: HW
LayerCount: 2
Fore
SplineSet
413 638 m 257
 657 735 l 257
 728 553 786 362 786 188 c 256
 786 -168 517 -415 131 -555 c 257
 42 -308 l 257
 346 -197 524 -50 524 188 c 256
 524 311 476 483 413 638 c 257
EndSplineSet
EndChar

StartChar: uniE026
Encoding: 57382 57382 332
GlifName: uniE_026
Width: 2491
VWidth: 0
GlyphClass: 2
Flags: HW
LayerCount: 2
Fore
SplineSet
2380 821 m 257
 2414 682 2434 572 2434 422 c 256
 2434 191 2295 0 2056 0 c 256
 1959 0 1853 39 1795 133 c 257
 1753 42 1669 0 1575 0 c 256
 1515 0 1456 15 1406 47 c 257
 1377 -310 1101 -492 734 -492 c 256
 344 -492 59 -304 59 119 c 256
 59 325 104 532 157 680 c 257
 396 602 l 257
 354 464 315 304 315 160 c 256
 315 -80 419 -228 735 -228 c 256
 1040 -228 1150 -103 1150 139 c 256
 1150 302 1099 460 1028 630 c 257
 1281 748 l 257
 1384 437 l 258
 1426 311 1464 262 1554 262 c 256
 1635 262 1679 317 1684 486 c 258
 1690 684 l 257
 1912 682 l 257
 1908 497 l 258
 1902 348 1943 262 2049 262 c 256
 2146 262 2171 322 2171 422 c 256
 2171 552 2151 652 2123 764 c 257
 2380 821 l 257
EndSplineSet
EndChar

StartChar: uniE027
Encoding: 57383 57383 333
GlifName: uniE_027
Width: 2467
VWidth: 0
GlyphClass: 2
Flags: HW
LayerCount: 2
Fore
SplineSet
1694 0 m 256
 1594 0 1494 11 1405 37 c 257
 1361 -319 1115 -500 743 -500 c 256
 338 -500 59 -310 59 128 c 256
 59 334 104 532 157 680 c 257
 401 600 l 257
 353 466 315 294 315 152 c 256
 315 -98 419 -237 743 -237 c 256
 1067 -237 1154 -75 1154 139 c 256
 1154 290 1091 467 1025 623 c 257
 1272 740 l 257
 1313 640 1349 539 1374 435 c 257
 1560 721 1806 870 2003 870 c 256
 2204 870 2409 732 2409 488 c 256
 2409 137 1977 0 1694 0 c 256
1566 275 m 257
 1606 267 1650 262 1694 262 c 256
 2007 262 2146 374 2146 472 c 256
 2146 551 2085 607 1987 607 c 256
 1885 607 1725 537 1566 275 c 257
EndSplineSet
EndChar

StartChar: uniE028
Encoding: 57384 57384 334
GlifName: uniE_028
Width: 1554
VWidth: 0
GlyphClass: 2
Flags: HW
LayerCount: 2
Fore
SplineSet
652 278 m 257
 652 262 l 257
 1184 264 1233 378 1233 480 c 256
 1233 556 1178 618 1080 618 c 256
 981 618 782 533 652 278 c 257
353 262 m 257
 353 1380 l 257
 616 1380 l 257
 616 591 l 257
 771 787 952 880 1117 880 c 256
 1291 880 1496 748 1496 506 c 256
 1496 166 1211 0 485 0 c 258
 54 0 l 257
 54 262 l 257
 353 262 l 257
EndSplineSet
EndChar

StartChar: uniE029
Encoding: 57385 57385 335
GlifName: uniE_029
Width: 1354
VWidth: 0
GlyphClass: 2
Flags: HW
LayerCount: 2
Fore
SplineSet
1062 1035 m 257
 880 883 l 257
 824 950 748 1018 626 1018 c 256
 493 1018 399 916 399 786 c 256
 399 649 538 603 731 603 c 256
 842 603 961 623 1064 642 c 257
 1099 374 l 257
 614 312 322 165 322 -138 c 256
 322 -364 522 -458 776 -458 c 256
 914 -458 1073 -431 1210 -379 c 257
 1316 -620 l 257
 1150 -694 962 -733 782 -733 c 256
 401 -733 59 -558 59 -178 c 256
 59 100 216 295 388 407 c 257
 263 465 136 584 136 756 c 256
 136 1055 359 1280 626 1280 c 256
 850 1280 971 1153 1062 1035 c 257
EndSplineSet
EndChar

StartChar: uniE02A
Encoding: 57386 57386 336
GlifName: uniE_02A_
Width: 851
VWidth: 0
GlyphClass: 2
Flags: HW
LayerCount: 2
Fore
SplineSet
0 262 m 258
 852 262 l 257
 852 0 l 257
 0 0 l 258
 -72 0 -132 60 -132 132 c 256
 -132 204 -72 262 0 262 c 258
EndSplineSet
EndChar

StartChar: uniE02B
Encoding: 57387 57387 337
GlifName: uniE_02B_
Width: 1588
VWidth: 0
GlyphClass: 2
Flags: HW
LayerCount: 2
Fore
SplineSet
1200 1386 m 257
 1463 1386 l 257
 1463 596 l 258
 1463 396 1423 251 1328 156 c 256
 1219 46 1062 0 726 0 c 256
 404 0 59 29 59 447 c 256
 59 554 79 664 101 756 c 257
 346 703 l 257
 327 611 314 532 314 471 c 256
 314 280 444 262 736 262 c 256
 1026 262 1082 275 1140 336 c 256
 1187 385 1200 467 1200 596 c 258
 1200 1386 l 257
EndSplineSet
EndChar

StartChar: uniE02C
Encoding: 57388 57388 338
GlifName: uniE_02C_
Width: 1381
VWidth: 0
GlyphClass: 2
Flags: HW
LayerCount: 2
Fore
SplineSet
993 1380 m 257
 1255 1380 l 257
 1255 98 l 258
 1255 -309 1014 -530 628 -530 c 256
 288 -530 59 -341 59 -40 c 256
 59 121 91 278 154 444 c 257
 391 356 l 257
 339 198 321 93 321 -4 c 256
 321 -167 422 -268 648 -268 c 256
 888 -268 993 -153 993 98 c 258
 993 1380 l 257
EndSplineSet
EndChar

StartChar: uniE02D
Encoding: 57389 57389 339
GlifName: uniE_02D_
Width: 1263
VWidth: 0
GlyphClass: 2
Flags: HW
LayerCount: 2
Fore
SplineSet
831 262 m 256
 913 262 940 296 940 380 c 256
 940 498 870 571 798 571 c 256
 702 571 631 475 607 312 c 257
 681 287 764 262 831 262 c 256
819 0 m 256
 703 0 592 29 508 63 c 256
 460 82 445 87 411 87 c 256
 355 87 322 55 322 -54 c 258
 322 -785 l 257
 59 -785 l 257
 59 -54 l 258
 59 132 169 302 354 340 c 257
 390 542 499 841 811 841 c 256
 1070 841 1205 600 1205 387 c 256
 1205 113 1001 0 819 0 c 256
EndSplineSet
EndChar

StartChar: uniE02E
Encoding: 57390 57390 340
GlifName: uniE_02E_
Width: 892
VWidth: 0
GlyphClass: 2
Flags: HW
LayerCount: 2
Fore
SplineSet
447 262 m 256
 539 262 586 297 586 377 c 256
 586 455 535 555 447 649 c 257
 360 555 307 454 307 377 c 256
 307 298 353 262 447 262 c 256
447 0 m 256
 223 0 59 156 59 372 c 256
 59 647 271 847 447 1001 c 257
 624 847 833 646 833 372 c 256
 833 156 672 0 447 0 c 256
EndSplineSet
EndChar

StartChar: uniE02F
Encoding: 57391 57391 341
GlifName: uniE_02F_
Width: 934
VWidth: 0
GlyphClass: 2
Flags: HW
LayerCount: 2
Fore
SplineSet
596 14 m 257
 555 5 500 0 448 -0 c 256
 236 0 91 116 91 354 c 256
 91 581 222 845 469 845 c 256
 775 845 876 502 876 212 c 256
 876 -190 645 -430 146 -554 c 257
 59 -307 l 257
 348 -235 539 -105 596 14 c 257
626 269 m 257
 610 461 555 578 464 578 c 256
 387 578 325 487 325 365 c 256
 325 277 365 250 477 250 c 256
 531 250 583 256 626 269 c 257
EndSplineSet
EndChar

StartChar: uniE030
Encoding: 57392 57392 342
GlifName: uniE_030
Width: 0
VWidth: 0
GlyphClass: 2
Flags: H
LayerCount: 2
Fore
SplineSet
-232 1957 m 256
 -232 1893 -211 1838 -182 1796 c 257
 -264 1744 l 257
 -305 1806 -332 1880 -332 1961 c 256
 -332 2169 -163 2337 45 2337 c 257
 45 2243 l 257
 -105 2243 -232 2115 -232 1957 c 256
EndSplineSet
EndChar

StartChar: uniE031
Encoding: 57393 57393 343
GlifName: uniE_031
Width: 0
VWidth: 0
GlyphClass: 2
Flags: H
LayerCount: 2
Fore
SplineSet
192 1858 m 257
 238 1758 l 257
 -192 1562 l 257
 -238 1664 l 257
 192 1858 l 257
EndSplineSet
EndChar

StartChar: uniE032
Encoding: 57394 57394 344
GlifName: uniE_032
Width: 0
VWidth: 0
GlyphClass: 2
Flags: H
LayerCount: 2
Fore
SplineSet
1 1780 m 257
 -64 1812 -134 1867 -134 1955 c 256
 -134 2061 -40 2139 51 2139 c 256
 165 2139 212 2033 212 1964 c 256
 212 1742 -16 1618 -181 1566 c 257
 -217 1670 l 257
 -137 1695 -61 1733 1 1780 c 257
75 1868 m 257
 93 1899 102 1931 102 1964 c 256
 102 1997 82 2029 50 2029 c 256
 18 2029 -24 1990 -24 1957 c 256
 -24 1923 6 1894 75 1868 c 257
EndSplineSet
EndChar

StartChar: uniE033
Encoding: 57395 57395 345
GlifName: uniE_033
Width: 0
VWidth: 0
GlyphClass: 2
Flags: H
LayerCount: 2
Fore
SplineSet
174 1780 m 256
 174 1822 166 1868 156 1912 c 257
 264 1939 l 257
 276 1889 285 1830 285 1776 c 256
 285 1665 217 1602 130 1602 c 256
 81 1602 22 1628 0 1674 c 257
 -24 1627 -81 1602 -130 1602 c 256
 -217 1602 -285 1664 -285 1776 c 256
 -285 1824 -276 1888 -265 1933 c 257
 -158 1909 l 257
 -168 1866 -174 1822 -174 1780 c 256
 -174 1719 -136 1711 -112 1711 c 256
 -86 1711 -48 1722 -48 1792 c 258
 -48 1874 l 257
 48 1874 l 257
 48 1792 l 258
 48 1722 85 1711 113 1711 c 256
 137 1711 174 1719 174 1780 c 256
EndSplineSet
EndChar

StartChar: uniE034
Encoding: 57396 57396 346
GlifName: uniE_034
Width: 0
VWidth: 0
GlyphClass: 2
Flags: H
LayerCount: 2
Fore
SplineSet
0 1940 m 256
 -60 1940 -107 1894 -107 1834 c 256
 -107 1774 -59 1728 0 1728 c 256
 58 1728 107 1776 107 1834 c 256
 107 1892 60 1940 0 1940 c 256
0 2050 m 256
 119 2050 217 1954 217 1834 c 256
 217 1714 120 1617 0 1617 c 256
 -122 1617 -217 1715 -217 1834 c 256
 -217 1953 -122 2050 0 2050 c 256
EndSplineSet
EndChar

StartChar: uniE035
Encoding: 57397 57397 347
GlifName: uniE_035
Width: 0
VWidth: 0
GlyphClass: 2
Flags: H
LayerCount: 2
Fore
SplineSet
-282 1612 m 257
 -250 1674 -190 1753 -91 1753 c 256
 -49 1753 -8 1736 32 1707 c 256
 58 1687 75 1683 90 1683 c 256
 124 1683 158 1716 180 1764 c 257
 281 1720 l 257
 250 1648 189 1572 90 1572 c 256
 47 1572 7 1587 -36 1619 c 256
 -60 1637 -78 1642 -91 1642 c 256
 -126 1642 -162 1606 -183 1564 c 257
 -282 1612 l 257
EndSplineSet
EndChar

StartChar: uniE036
Encoding: 57398 57398 348
GlifName: uniE_036
Width: 0
VWidth: 0
GlyphClass: 2
Flags: H
LayerCount: 2
Fore
SplineSet
-192 1562 m 257
 -238 1663 l 257
 -134 1710 l 257
 -173 1762 -192 1819 -192 1876 c 256
 -192 1988 -111 2068 34 2084 c 258
 104 2091 l 257
 115 1982 l 257
 34 1973 l 258
 -52 1965 -82 1928 -82 1876 c 256
 -82 1840 -64 1794 -30 1757 c 257
 193 1858 l 257
 239 1757 l 257
 -192 1562 l 257
EndSplineSet
EndChar

StartChar: uniE037
Encoding: 57399 57399 349
GlifName: uniE_037
Width: 0
VWidth: 0
GlyphClass: 2
Flags: H
LayerCount: 2
Fore
SplineSet
-265 1927 m 257
 -177 1993 l 257
 0 1762 l 257
 177 1993 l 257
 265 1927 l 257
 0 1578 l 257
 -265 1927 l 257
EndSplineSet
EndChar

StartChar: uniE038
Encoding: 57400 57400 350
GlifName: uniE_038
Width: 1771
VWidth: 0
GlyphClass: 2
Flags: HW
LayerCount: 2
Fore
SplineSet
1660 832 m 257
 1690 734 1712 605 1712 491 c 256
 1712 77 1325 0 886 0 c 256
 447 0 59 77 59 491 c 256
 59 605 81 734 111 832 c 257
 366 763 l 257
 344 689 320 580 320 500 c 256
 320 290 589 262 886 262 c 256
 1183 262 1451 290 1451 500 c 256
 1451 580 1427 689 1405 763 c 257
 1660 832 l 257
EndSplineSet
EndChar

StartChar: uniE039
Encoding: 57401 57401 351
GlifName: uniE_039
Width: 1490
VWidth: 0
GlyphClass: 2
Flags: HW
LayerCount: 2
Fore
SplineSet
1182 270 m 257
 1166 462 1112 579 1021 579 c 256
 944 579 882 487 882 365 c 256
 882 277 922 250 1034 250 c 256
 1088 250 1139 257 1182 270 c 257
1160 18 m 257
 1117 8 1056 0 1004 0 c 256
 793 0 648 117 648 354 c 256
 648 581 779 845 1026 845 c 256
 1332 845 1432 505 1432 167 c 256
 1432 -293 1145 -530 696 -530 c 256
 383 -530 59 -370 59 34 c 256
 59 241 116 391 197 552 c 257
 425 430 l 257
 358 291 322 166 322 34 c 256
 322 -164 449 -268 711 -268 c 256
 995 -268 1120 -162 1160 18 c 257
EndSplineSet
EndChar

StartChar: uniE03A
Encoding: 57402 57402 352
GlifName: uniE_03A_
Width: 0
VWidth: 0
GlyphClass: 2
Flags: H
LayerCount: 2
Fore
SplineSet
-55 1976 m 257
 55 1976 l 257
 55 1620 l 257
 -55 1620 l 257
 -55 1976 l 257
EndSplineSet
EndChar

StartChar: uniE03B
Encoding: 57403 57403 353
GlifName: uniE_03B_
Width: 1737
VWidth: 0
GlyphClass: 2
Flags: HW
LayerCount: 2
Fore
SplineSet
1415 666 m 257
 1397 860 1341 981 1251 981 c 256
 1174 981 1108 888 1108 765 c 256
 1108 678 1146 647 1258 647 c 256
 1315 647 1369 652 1415 666 c 257
1679 519 m 256
 1679 62 1362 0 850 0 c 256
 358 0 59 69 59 482 c 256
 59 596 86 718 116 816 c 257
 370 747 l 257
 348 673 322 573 322 493 c 256
 322 281 515 262 916 262 c 256
 1293 262 1425 283 1442 435 c 257
 1375 415 1310 407 1236 407 c 256
 1031 407 880 506 880 741 c 256
 880 963 997 1242 1254 1242 c 256
 1647 1242 1679 697 1679 519 c 256
EndSplineSet
EndChar

StartChar: uniE03C
Encoding: 57404 57404 354
GlifName: uniE_03C_
Width: 1786
VWidth: 0
GlyphClass: 2
Flags: HW
LayerCount: 2
Fore
SplineSet
116 816 m 257
 370 747 l 257
 348 673 322 573 322 493 c 256
 322 281 525 262 797 262 c 256
 1086 262 1228 311 1228 434 c 256
 1228 560 976 783 757 944 c 257
 757 1173 l 257
 1031 1352 1351 1486 1667 1552 c 257
 1720 1295 l 257
 1500 1249 1270 1165 1060 1049 c 257
 1060 1038 l 257
 1272 864 1491 652 1491 411 c 256
 1491 64 1107 0 762 0 c 256
 384 0 59 69 59 482 c 256
 59 596 86 718 116 816 c 257
EndSplineSet
EndChar

StartChar: uniE03D
Encoding: 57405 57405 355
GlifName: uniE_03D_
Width: 1524
VWidth: 0
GlyphClass: 2
Flags: HW
LayerCount: 2
Fore
SplineSet
1080 616 m 257
 1328 733 l 257
 1400 563 1466 388 1466 140 c 256
 1466 -286 1164 -508 758 -508 c 256
 353 -508 58 -303 58 135 c 256
 58 341 103 532 156 680 c 257
 399 600 l 257
 351 466 313 300 313 158 c 256
 313 -92 449 -244 759 -244 c 256
 1091 -244 1204 -80 1204 134 c 256
 1204 294 1146 462 1080 616 c 257
EndSplineSet
EndChar

StartChar: uniE03E
Encoding: 57406 57406 356
GlifName: uniE_03E_
Width: 1505
VWidth: 0
GlyphClass: 2
Flags: HW
LayerCount: 2
Fore
SplineSet
1398 857 m 257
 1318 629 l 257
 1257 650 1190 660 1128 660 c 256
 957 660 826 571 826 424 c 256
 826 316 890 305 1051 288 c 256
 1261 265 1446 220 1446 -68 c 256
 1446 -388 1091 -530 753 -530 c 256
 277 -530 63 -324 63 47 c 256
 63 189 89 348 129 502 c 257
 368 442 l 257
 342 316 319 183 319 74 c 256
 319 -156 428 -268 756 -268 c 256
 1045 -268 1184 -173 1184 -76 c 256
 1184 -3 1159 10 999 26 c 256
 751 52 564 102 564 392 c 256
 564 692 784 921 1114 921 c 256
 1222 921 1311 896 1398 857 c 257
EndSplineSet
EndChar

StartChar: uniE03F
Encoding: 57407 57407 357
GlifName: uniE_03F_
Width: 1855
VWidth: 0
GlyphClass: 2
Flags: HW
LayerCount: 2
Fore
SplineSet
1856 262 m 257
 1856 0 l 257
 1855 0 l 257
 1652 0 1494 88 1404 232 c 257
 1280 43 1030 0 765 0 c 256
 387 0 59 69 59 482 c 256
 59 596 86 718 116 816 c 257
 370 747 l 257
 348 673 322 573 322 493 c 256
 322 281 527 262 799 262 c 256
 1088 262 1228 311 1228 434 c 256
 1228 560 976 783 757 944 c 257
 757 1173 l 257
 1031 1352 1351 1486 1667 1552 c 257
 1720 1295 l 257
 1500 1249 1270 1165 1060 1049 c 257
 1060 1038 l 257
 1294 858 1402 677 1482 534 c 256
 1576 366 1648 262 1855 262 c 257
 1856 262 l 257
EndSplineSet
EndChar

StartChar: uniE040
Encoding: 57408 57408 358
GlifName: uniE_040
Width: 1712
VWidth: 0
GlyphClass: 2
Flags: HW
LayerCount: 2
Fore
SplineSet
156 680 m 257
 400 600 l 257
 352 464 313 311 313 167 c 256
 313 -73 427 -244 759 -244 c 256
 1080 -244 1203 -96 1203 146 c 256
 1203 294 1142 466 1080 616 c 257
 1328 733 l 257
 1434 435 l 258
 1477 312 1536 262 1712 262 c 258
 1713 262 l 257
 1713 -1 l 257
 1712 -1 l 258
 1614 -1 1526 24 1461 68 c 257
 1437 -302 1141 -508 758 -508 c 256
 353 -508 58 -298 58 128 c 256
 58 334 103 532 156 680 c 257
EndSplineSet
EndChar

StartChar: uniE041
Encoding: 57409 57409 359
GlifName: uniE_041
Width: 570
VWidth: 0
GlyphClass: 2
Flags: HW
LayerCount: 2
Fore
SplineSet
444 866 m 257
 486 736 512 600 512 480 c 256
 512 200 370 0 0 0 c 256
 -72 0 -132 60 -132 132 c 256
 -132 204 -72 262 0 262 c 256
 193 262 252 358 252 490 c 256
 252 586 222 696 192 792 c 257
 444 866 l 257
EndSplineSet
EndChar

StartChar: uniE042
Encoding: 57410 57410 360
GlifName: uniE_042
Width: 805
VWidth: 0
GlyphClass: 2
Flags: HW
LayerCount: 2
Fore
SplineSet
0 262 m 256
 121 262 190 280 228 328 c 256
 263 372 272 442 272 548 c 258
 272 716 l 257
 535 716 l 257
 535 548 l 258
 535 441 543 372 579 328 c 256
 617 280 684 262 804 262 c 258
 806 262 l 257
 806 0 l 257
 804 0 l 257
 630 0 488 49 403 161 c 257
 317 48 172 0 0 0 c 256
 -72 0 -132 60 -132 132 c 256
 -132 204 -72 262 0 262 c 256
EndSplineSet
EndChar

StartChar: uniE043
Encoding: 57411 57411 361
GlifName: uniE_043
Width: 1430
VWidth: 0
GlyphClass: 2
Flags: HW
LayerCount: 2
Fore
SplineSet
1430 262 m 257
 1430 0 l 257
 1306 0 l 257
 1344 -56 1365 -120 1365 -178 c 256
 1365 -462 999 -600 720 -600 c 256
 256 -600 59 -360 59 20 c 256
 59 202 109 440 174 636 c 257
 422 553 l 257
 367 383 317 164 317 11 c 256
 317 -205 415 -337 722 -337 c 256
 1029 -337 1110 -219 1110 -148 c 256
 1110 -50 960 0 718 -0 c 257
 718 262 l 257
 1430 262 l 257
EndSplineSet
EndChar

StartChar: uniE044
Encoding: 57412 57412 362
GlifName: uniE_044
Width: 614
VWidth: 0
GlyphClass: 2
Flags: HW
LayerCount: 2
Fore
SplineSet
126 1380 m 257
 388 1380 l 257
 388 463 l 258
 388 388 397 339 424 309 c 256
 456 273 510 262 614 262 c 257
 616 262 l 257
 616 0 l 257
 614 0 l 257
 450 0 328 43 244 126 c 256
 167 203 126 316 126 463 c 258
 126 1380 l 257
EndSplineSet
EndChar

StartChar: uniE045
Encoding: 57413 57413 363
GlifName: uniE_045
Width: 1465
VWidth: 0
GlyphClass: 2
Flags: HW
LayerCount: 2
Fore
SplineSet
1289 -378 m 257
 1383 -623 l 257
 1187 -705 987 -748 768 -748 c 256
 388 -748 59 -582 59 -188 c 256
 59 240 494 470 950 602 c 257
 603 714 l 258
 568 726 537 731 509 731 c 256
 409 731 349 661 331 492 c 257
 102 531 l 257
 134 780 267 993 514 993 c 256
 574 993 640 982 714 952 c 258
 1318 732 l 257
 1318 459 l 257
 1267 447 1173 420 1125 406 c 257
 1191 321 1318 262 1465 262 c 258
 1466 262 l 257
 1466 0 l 257
 1465 0 l 258
 1194 0 993 134 883 324 c 257
 547 198 322 28 322 -188 c 256
 322 -387 500 -475 750 -475 c 256
 944 -475 1129 -438 1289 -378 c 257
EndSplineSet
EndChar

StartChar: uniE046
Encoding: 57414 57414 364
GlifName: uniE_046
Width: 1368
VWidth: 0
GlyphClass: 2
Flags: HW
LayerCount: 2
Fore
SplineSet
84 527 m 257
 117 715 206 986 468 986 c 256
 534 986 610 968 696 930 c 258
 1294 670 l 257
 1294 429 l 257
 877 158 542 0 0 0 c 256
 -72 0 -132 60 -132 132 c 256
 -132 204 -72 262 0 262 c 256
 409 262 689 350 961 538 c 257
 580 693 l 258
 541 710 508 719 479 719 c 256
 393 719 340 643 313 486 c 257
 84 527 l 257
EndSplineSet
EndChar

StartChar: uniE047
Encoding: 57415 57415 365
GlifName: uniE_047
Width: 1382
VWidth: 0
GlyphClass: 2
Flags: HW
LayerCount: 2
Fore
SplineSet
84 527 m 257
 117 715 205 986 467 986 c 256
 533 986 610 968 696 930 c 258
 1294 670 l 257
 1294 429 l 257
 1237 392 1183 357 1129 325 c 257
 1201 288 1274 262 1381 262 c 258
 1382 262 l 257
 1382 0 l 257
 1381 0 l 258
 1183 0 1035 81 919 210 c 257
 647 74 372 0 0 0 c 256
 -72 0 -132 60 -132 132 c 256
 -132 204 -72 262 0 262 c 256
 409 262 689 350 961 538 c 257
 580 693 l 258
 540 710 507 718 478 718 c 256
 392 718 340 643 313 486 c 257
 84 527 l 257
EndSplineSet
EndChar

StartChar: uniE048
Encoding: 57416 57416 366
GlifName: uniE_048
Width: 1239
VWidth: 0
GlyphClass: 2
Flags: HW
LayerCount: 2
Fore
SplineSet
1239 262 m 257
 1239 0 l 257
 1238 0 l 257
 1083 0 948 32 838 156 c 257
 750 48 590 0 428 0 c 256
 282 0 136 36 37 110 c 257
 122 332 l 257
 210 284 342 262 451 262 c 256
 601 262 675 317 675 398 c 256
 675 426 667 453 649 495 c 258
 455 952 l 257
 696 1057 l 257
 929 512 l 258
 1030 275 1058 262 1238 262 c 257
 1239 262 l 257
EndSplineSet
EndChar

StartChar: uniE049
Encoding: 57417 57417 367
GlifName: uniE_049
Width: 974
VWidth: 0
GlyphClass: 2
Flags: HW
LayerCount: 2
Fore
SplineSet
414 638 m 257
 658 735 l 257
 746 462 l 258
 803 290 843 262 974 262 c 257
 975 262 l 257
 975 0 l 257
 974 0 l 258
 894 0 836 14 768 46 c 257
 732 -229 460 -436 132 -555 c 257
 42 -308 l 257
 346 -197 524 -50 524 188 c 256
 524 303 483 462 414 638 c 257
EndSplineSet
EndChar

StartChar: uniE04A
Encoding: 57418 57418 368
GlifName: uniE_04A_
Width: 2703
VWidth: 0
GlyphClass: 2
Flags: HW
LayerCount: 2
Fore
SplineSet
2383 809 m 257
 2416 585 l 258
 2434 463 2449 376 2499 324 c 256
 2539 282 2600 262 2704 262 c 258
 2704 262 l 257
 2704 0 l 257
 2704 0 l 257
 2542 0 2410 43 2323 137 c 257
 2259 49 2160 0 2054 0 c 256
 1957 0 1853 41 1794 130 c 257
 1752 44 1670 0 1574 0 c 256
 1516 0 1456 15 1406 47 c 257
 1377 -310 1101 -492 734 -492 c 256
 344 -492 59 -304 59 119 c 256
 59 325 104 532 157 680 c 257
 396 602 l 257
 354 464 315 304 315 160 c 256
 315 -80 419 -228 735 -228 c 256
 1040 -228 1150 -103 1150 139 c 256
 1150 298 1100 457 1028 630 c 257
 1281 748 l 257
 1386 430 l 258
 1424 315 1464 262 1550 262 c 256
 1635 262 1680 316 1684 478 c 258
 1691 684 l 257
 1912 682 l 257
 1907 496 l 258
 1901 350 1940 262 2043 262 c 256
 2136 262 2166 327 2166 422 c 256
 2166 487 2160 571 2144 657 c 258
 2123 768 l 257
 2383 809 l 257
EndSplineSet
EndChar

StartChar: uniE04B
Encoding: 57419 57419 369
GlifName: uniE_04B_
Width: 1618
VWidth: 0
GlyphClass: 2
Flags: HW
LayerCount: 2
Fore
SplineSet
1510 809 m 257
 1542 665 1560 565 1560 410 c 256
 1560 302 1529 207 1473 135 c 256
 1408 49 1308 0 1185 0 c 256
 1077 0 986 46 924 114 c 257
 862 45 772 0 664 0 c 256
 542 0 445 56 383 136 c 257
 297 45 171 0 0 0 c 256
 -72 0 -132 60 -132 132 c 256
 -132 204 -72 262 0 262 c 256
 120 262 187 279 226 326 c 256
 266 375 272 458 272 594 c 258
 272 714 l 257
 535 714 l 257
 535 507 l 258
 535 418 538 350 568 308 c 256
 589 279 624 262 676 262 c 256
 728 262 761 280 781 310 c 256
 809 352 813 421 813 507 c 258
 813 702 l 257
 1036 702 l 257
 1036 507 l 258
 1036 423 1040 354 1066 312 c 256
 1086 279 1116 262 1167 262 c 256
 1230 262 1264 283 1282 323 c 256
 1293 349 1299 382 1299 426 c 256
 1299 530 1279 642 1254 754 c 257
 1510 809 l 257
EndSplineSet
EndChar

StartChar: uniE04C
Encoding: 57420 57420 370
GlifName: uniE_04C_
Width: 1822
VWidth: 0
GlyphClass: 2
Flags: HW
LayerCount: 2
Fore
SplineSet
1510 809 m 257
 1542 573 l 258
 1558 461 1573 380 1618 330 c 256
 1658 285 1719 262 1821 262 c 258
 1822 262 l 257
 1822 0 l 257
 1821 0 l 257
 1675 0 1549 37 1457 124 c 257
 1394 48 1299 0 1185 0 c 256
 1076 0 986 48 924 116 c 257
 862 46 773 0 664 0 c 256
 542 0 445 56 383 136 c 257
 297 45 171 0 0 0 c 256
 -72 0 -132 60 -132 132 c 256
 -132 204 -72 262 0 262 c 256
 120 262 187 278 226 325 c 256
 266 374 272 458 272 594 c 258
 272 714 l 257
 535 714 l 257
 535 507 l 258
 535 414 540 347 570 306 c 256
 592 278 625 262 677 262 c 256
 727 262 759 278 780 307 c 256
 809 349 813 417 813 507 c 258
 813 702 l 257
 1036 702 l 257
 1036 507 l 258
 1036 421 1041 355 1064 314 c 256
 1083 280 1113 263 1166 263 c 256
 1226 263 1260 282 1279 320 c 256
 1291 344 1298 377 1298 419 c 256
 1298 522 1276 636 1250 768 c 257
 1510 809 l 257
EndSplineSet
EndChar

StartChar: uniE04D
Encoding: 57421 57421 371
GlifName: uniE_04D_
Width: 2527
VWidth: 0
GlyphClass: 2
Flags: HW
LayerCount: 2
Fore
SplineSet
1374 435 m 257
 1560 721 1806 870 2003 870 c 256
 2204 870 2409 732 2409 488 c 256
 2409 415 2391 354 2359 299 c 257
 2395 275 2447 262 2527 262 c 258
 2528 262 l 257
 2528 0 l 257
 2527 0 l 258
 2363 0 2241 38 2152 114 c 257
 2013 34 1836 0 1694 0 c 256
 1594 0 1494 11 1405 37 c 257
 1361 -319 1115 -500 743 -500 c 256
 338 -500 59 -310 59 128 c 256
 59 334 104 532 157 680 c 257
 401 600 l 257
 353 466 315 290 315 148 c 256
 315 -102 419 -237 743 -237 c 256
 1067 -237 1154 -78 1154 136 c 256
 1154 296 1091 467 1025 623 c 257
 1272 740 l 257
 1313 640 1349 539 1374 435 c 257
1566 275 m 257
 1606 267 1650 262 1694 262 c 256
 2007 262 2146 374 2146 472 c 256
 2146 551 2085 607 1987 607 c 256
 1885 607 1725 537 1566 275 c 257
EndSplineSet
EndChar

StartChar: uniE04E
Encoding: 57422 57422 372
GlifName: uniE_04E_
Width: 1673
VWidth: 0
GlyphClass: 2
Flags: HW
LayerCount: 2
Fore
SplineSet
0 262 m 256
 118 262 184 281 222 329 c 256
 260 375 272 448 272 556 c 258
 272 714 l 257
 535 714 l 257
 535 556 l 258
 535 492 542 424 555 395 c 257
 744 741 1003 880 1215 880 c 256
 1409 880 1614 748 1614 506 c 256
 1614 150 1160 0 871 0 c 256
 675 0 500 21 390 134 c 257
 296 35 156 0 0 0 c 256
 -72 0 -132 60 -132 132 c 256
 -132 204 -72 262 0 262 c 256
760 268 m 257
 792 264 829 262 871 262 c 256
 1189 262 1351 390 1351 490 c 256
 1351 566 1291 618 1199 618 c 256
 1095 618 926 544 760 268 c 257
EndSplineSet
EndChar

StartChar: uniE04F
Encoding: 57423 57423 373
GlifName: uniE_04F_
Width: 1717
VWidth: 0
GlyphClass: 2
Flags: HW
LayerCount: 2
Fore
SplineSet
760 268 m 257
 792 264 829 262 871 262 c 256
 1189 262 1351 390 1351 490 c 256
 1351 566 1291 618 1199 618 c 256
 1095 618 926 544 760 268 c 257
535 714 m 257
 535 553 l 258
 535 486 542 435 555 395 c 257
 744 741 1003 880 1215 880 c 256
 1409 880 1614 748 1614 506 c 256
 1614 427 1590 358 1549 298 c 257
 1583 274 1635 262 1716 262 c 257
 1717 262 l 257
 1717 0 l 257
 1716 0 l 257
 1565 0 1436 34 1344 116 c 257
 1198 36 1019 0 871 0 c 256
 673 0 500 22 390 134 c 257
 295 37 160 0 0 0 c 256
 -72 0 -132 60 -132 132 c 256
 -132 204 -72 262 0 262 c 256
 114 262 182 282 222 330 c 256
 262 378 272 454 272 568 c 258
 272 714 l 257
 535 714 l 257
EndSplineSet
EndChar

StartChar: uniE050
Encoding: 57424 57424 374
GlifName: uniE_050
Width: 1598
VWidth: 0
GlyphClass: 2
Flags: HW
LayerCount: 2
Fore
SplineSet
652 262 m 257
 1184 264 1233 378 1233 480 c 256
 1233 556 1178 618 1080 618 c 256
 981 618 781 533 652 278 c 257
 652 262 l 257
353 262 m 257
 353 1380 l 257
 616 1380 l 257
 616 591 l 257
 771 785 949 880 1117 880 c 256
 1291 880 1496 748 1496 506 c 256
 1496 427 1479 356 1441 292 c 257
 1474 272 1527 262 1597 262 c 257
 1598 262 l 257
 1598 0 l 257
 1597 0 l 257
 1451 0 1329 28 1233 109 c 257
 1071 33 833 0 485 0 c 258
 54 0 l 257
 54 262 l 257
 353 262 l 257
EndSplineSet
EndChar

StartChar: uniE051
Encoding: 57425 57425 375
GlifName: uniE_051
Width: 1340
VWidth: 0
GlyphClass: 2
Flags: HW
LayerCount: 2
Fore
SplineSet
438 262 m 257
 970 264 1018 378 1018 480 c 256
 1018 556 964 618 866 618 c 256
 766 618 566 531 438 278 c 257
 438 262 l 257
0 262 m 258
 139 262 l 257
 139 1380 l 257
 402 1380 l 257
 402 591 l 257
 558 787 737 880 898 880 c 256
 1076 880 1282 748 1282 506 c 256
 1282 166 997 0 271 0 c 258
 0 0 l 258
 -72 0 -132 60 -132 132 c 256
 -132 204 -72 262 0 262 c 258
EndSplineSet
EndChar

StartChar: uniE052
Encoding: 57426 57426 376
GlifName: uniE_052
Width: 1384
VWidth: 0
GlyphClass: 2
Flags: HW
LayerCount: 2
Fore
SplineSet
438 262 m 257
 966 262 1018 378 1018 480 c 256
 1018 556 964 618 866 618 c 256
 766 618 566 531 438 278 c 257
 438 262 l 257
0 262 m 258
 139 262 l 257
 139 1380 l 257
 402 1380 l 257
 402 591 l 257
 557 786 736 880 882 880 c 256
 1076 880 1282 748 1282 506 c 256
 1282 427 1264 356 1226 292 c 257
 1259 272 1313 262 1383 262 c 257
 1384 262 l 257
 1384 0 l 257
 1383 0 l 257
 1237 0 1114 28 1018 109 c 257
 856 33 619 0 271 0 c 258
 0 0 l 258
 -72 0 -132 60 -132 132 c 256
 -132 204 -72 262 0 262 c 258
EndSplineSet
EndChar

StartChar: uniE053
Encoding: 57427 57427 377
GlifName: uniE_053
Width: 1228
VWidth: 0
GlyphClass: 2
Flags: HW
LayerCount: 2
Fore
SplineSet
1107 572 m 256
 1107 454 1034 352 961 290 c 257
 1033 272 1137 262 1228 262 c 258
 1230 262 l 257
 1230 0 l 257
 1228 0 l 258
 1020 0 822 46 697 116 c 257
 449 20 322 -117 322 -270 c 256
 322 -446 533 -517 758 -517 c 256
 900 -517 1036 -490 1133 -450 c 257
 1222 -688 l 257
 1090 -744 921 -777 755 -777 c 256
 397 -777 59 -634 59 -274 c 256
 59 -13 245 167 473 279 c 257
 392 344 251 461 155 551 c 257
 161 729 l 257
 295 854 492 919 676 919 c 256
 878 919 1107 798 1107 572 c 256
865 554 m 256
 865 606 802 665 670 665 c 256
 596 665 509 640 449 608 c 257
 449 596 l 257
 529 521 617 440 702 374 c 257
 797 424 865 497 865 554 c 256
EndSplineSet
EndChar

StartChar: uniE054
Encoding: 57428 57428 378
GlifName: uniE_054
Width: 1139
VWidth: 0
GlyphClass: 2
Flags: HW
LayerCount: 2
Fore
SplineSet
367 499 m 256
 367 384 465 333 587 333 c 256
 612 333 638 336 662 340 c 258
 1007 406 l 257
 1056 147 l 257
 506 42 l 258
 356 14 172 0 0 0 c 256
 -73 0 -130 61 -130 132 c 256
 -130 203 -73 262 0 262 c 256
 57 262 133 264 186 268 c 257
 136 325 105 396 105 490 c 256
 105 767 313 988 576 988 c 256
 783 988 905 852 991 737 c 257
 804 606 l 257
 754 674 678 726 582 726 c 256
 458 726 367 626 367 499 c 256
EndSplineSet
EndChar

StartChar: uniE055
Encoding: 57429 57429 379
GlifName: uniE_055
Width: 1113
VWidth: 0
GlyphClass: 2
Flags: HW
LayerCount: 2
Fore
SplineSet
88 729 m 257
 225 856 420 919 605 919 c 256
 803 919 1032 800 1032 571 c 256
 1032 454 959 351 887 290 c 257
 947 273 1034 262 1114 262 c 258
 1115 262 l 257
 1115 0 l 257
 1114 0 l 258
 917 0 760 46 640 112 c 257
 464 45 214 0 0 0 c 256
 -72 0 -132 60 -132 132 c 256
 -132 204 -72 262 0 262 c 256
 118 262 311 272 388 284 c 257
 308 349 177 463 82 551 c 257
 88 729 l 257
376 608 m 257
 376 596 l 257
 453 523 542 440 628 374 c 257
 722 422 792 498 792 552 c 256
 792 608 723 665 599 665 c 256
 522 665 438 642 376 608 c 257
EndSplineSet
EndChar

StartChar: uniE056
Encoding: 57430 57430 380
GlifName: uniE_056
Width: 1734
VWidth: 0
GlyphClass: 2
Flags: HW
LayerCount: 2
Fore
SplineSet
1200 1386 m 257
 1463 1386 l 257
 1463 596 l 258
 1463 462 1472 372 1522 321 c 256
 1562 280 1626 262 1733 262 c 258
 1734 262 l 257
 1734 0 l 257
 1733 0 l 257
 1613 0 1502 28 1418 89 c 256
 1385 112 1356 138 1331 171 c 257
 1302 137 1265 109 1223 86 c 256
 1108 20 963 0 733 0 c 256
 405 0 59 29 59 447 c 256
 59 554 79 664 101 756 c 257
 346 703 l 257
 327 611 314 532 314 471 c 256
 314 280 444 262 742 262 c 256
 971 262 1076 268 1141 336 c 256
 1188 384 1200 466 1200 596 c 258
 1200 1386 l 257
EndSplineSet
EndChar

StartChar: uniE057
Encoding: 57431 57431 381
GlifName: uniE_057
Width: 1040
VWidth: 0
GlyphClass: 2
Flags: HW
LayerCount: 2
Fore
SplineSet
0 262 m 258
 167 262 l 258
 392 262 482 332 482 430 c 256
 482 561 230 783 11 944 c 257
 11 1173 l 257
 285 1352 604 1486 920 1552 c 257
 974 1295 l 257
 754 1249 523 1165 313 1049 c 257
 313 1038 l 257
 525 864 745 653 745 408 c 256
 745 80 365 0 172 0 c 258
 0 0 l 258
 -72 0 -132 60 -132 132 c 257
 -132 204 -72 262 0 262 c 258
EndSplineSet
EndChar

StartChar: uniE058
Encoding: 57432 57432 382
GlifName: uniE_058
Width: 1110
VWidth: 0
GlyphClass: 2
Flags: HW
LayerCount: 2
Fore
SplineSet
0 262 m 258
 167 262 l 258
 392 262 482 332 482 430 c 256
 482 561 230 783 11 944 c 257
 11 1173 l 257
 286 1352 604 1486 921 1552 c 257
 974 1295 l 257
 754 1248 523 1165 313 1049 c 257
 313 1038 l 257
 547 858 656 678 736 535 c 256
 830 367 903 262 1110 262 c 258
 1111 262 l 257
 1111 0 l 257
 1110 0 l 258
 907 0 749 79 659 224 c 257
 571 77 406 0 172 0 c 258
 0 0 l 258
 -72 0 -132 60 -132 132 c 257
 -132 204 -72 262 0 262 c 258
EndSplineSet
EndChar

StartChar: uniE059
Encoding: 57433 57433 383
GlifName: uniE_059
Width: 1524
VWidth: 0
GlyphClass: 2
Flags: HW
LayerCount: 2
Fore
SplineSet
1526 262 m 257
 1526 0 l 257
 1524 0 l 257
 1418 0 1319 21 1252 81 c 257
 1252 44 l 258
 1252 -298 996 -530 628 -530 c 256
 288 -530 59 -341 59 -40 c 256
 59 121 91 278 154 444 c 257
 391 356 l 257
 339 198 321 93 321 -4 c 256
 321 -167 422 -268 648 -268 c 256
 888 -268 993 -153 993 98 c 258
 993 1380 l 257
 1255 1380 l 257
 1255 594 l 258
 1255 449 1280 363 1310 326 c 256
 1338 290 1389 262 1524 262 c 257
 1526 262 l 257
EndSplineSet
EndChar

StartChar: uniE05A
Encoding: 57434 57434 384
GlifName: uniE_05A_
Width: 619
VWidth: 0
GlyphClass: 2
Flags: HW
LayerCount: 2
Fore
SplineSet
495 468 m 258
 495 320 454 206 376 128 c 256
 292 44 164 0 0 0 c 256
 -72 0 -132 60 -132 132 c 256
 -132 204 -72 262 0 262 c 256
 104 262 163 274 195 310 c 256
 223 341 232 391 232 468 c 258
 232 1380 l 257
 495 1380 l 257
 495 468 l 258
EndSplineSet
EndChar

StartChar: uniE05B
Encoding: 57435 57435 385
GlifName: uniE_05B_
Width: 726
VWidth: 0
GlyphClass: 2
Flags: HW
LayerCount: 2
Fore
SplineSet
0 262 m 256
 104 262 162 276 194 316 c 256
 227 358 232 430 232 542 c 258
 232 1380 l 257
 495 1380 l 257
 495 542 l 258
 495 430 499 359 532 317 c 256
 564 277 622 262 726 262 c 258
 727 262 l 257
 727 0 l 257
 726 0 l 257
 554 0 432 48 363 161 c 257
 297 49 170 0 0 0 c 256
 -72 0 -132 60 -132 132 c 256
 -132 204 -72 262 0 262 c 256
EndSplineSet
EndChar

StartChar: uniE05C
Encoding: 57436 57436 386
GlifName: uniE_05C_
Width: 1399
VWidth: 0
GlyphClass: 2
Flags: HW
LayerCount: 2
Fore
SplineSet
607 312 m 257
 684 288 761 262 831 262 c 256
 913 262 940 296 940 380 c 256
 940 498 870 571 798 571 c 256
 702 571 631 475 607 312 c 257
1399 0 m 257
 1398 0 l 258
 1275 0 1176 34 1091 106 c 257
 1018 33 917 0 819 0 c 256
 703 0 592 29 508 63 c 256
 460 82 445 87 411 87 c 256
 355 87 322 55 322 -54 c 258
 322 -785 l 257
 59 -785 l 257
 59 -54 l 258
 59 167 169 302 354 340 c 257
 390 542 499 841 811 841 c 256
 1050 841 1178 635 1202 437 c 256
 1219 301 1264 262 1398 262 c 258
 1399 262 l 257
 1399 0 l 257
EndSplineSet
EndChar

StartChar: uniE05D
Encoding: 57437 57437 387
GlifName: uniE_05D_
Width: 1101
VWidth: 0
GlyphClass: 2
Flags: HW
LayerCount: 2
Fore
SplineSet
0 262 m 256
 91 262 142 315 188 402 c 256
 206 434 223 469 240 507 c 256
 313 670 407 846 650 846 c 256
 903 846 1043 590 1043 388 c 256
 1043 183 887 0 658 0 c 256
 514 0 406 64 333 158 c 257
 255 56 138 0 0 0 c 256
 -72 0 -132 60 -132 132 c 256
 -132 204 -72 262 0 262 c 256
446 373 m 257
 504 313 586 262 657 262 c 256
 717 262 780 307 780 388 c 256
 780 503 707 588 635 588 c 256
 570 588 511 546 462 412 c 257
 446 373 l 257
EndSplineSet
EndChar

StartChar: uniE05E
Encoding: 57438 57438 388
GlifName: uniE_05E_
Width: 1300
VWidth: 0
GlyphClass: 2
Flags: HW
LayerCount: 2
Fore
SplineSet
0 262 m 256
 91 262 142 315 188 402 c 256
 206 434 223 469 240 507 c 256
 313 670 407 846 650 846 c 256
 883 846 1020 630 1040 438 c 256
 1046 385 1066 350 1086 326 c 256
 1114 291 1164 262 1299 262 c 258
 1300 262 l 257
 1300 0 l 257
 1299 0 l 258
 1155 0 1029 42 953 138 c 257
 887 55 782 0 659 0 c 256
 514 0 406 64 333 158 c 257
 255 56 138 0 0 0 c 256
 -72 0 -132 60 -132 132 c 256
 -132 204 -72 262 0 262 c 256
446 373 m 257
 504 313 586 262 657 262 c 256
 717 262 780 307 780 388 c 256
 780 503 707 588 635 588 c 256
 570 588 511 546 462 412 c 258
 446 373 l 257
EndSplineSet
EndChar

StartChar: uniE05F
Encoding: 57439 57439 389
GlifName: uniE_05F_
Width: 1094
VWidth: 0
GlyphClass: 2
Flags: HW
LayerCount: 2
Fore
SplineSet
587 717 m 257
 394 702 303 605 303 525 c 256
 303 459 367 414 489 414 c 256
 525 414 566 419 605 430 c 257
 587 717 l 257
1095 0 m 257
 1094 0 l 257
 866 0 768 61 678 197 c 257
 630 173 560 162 489 162 c 256
 297 162 59 258 59 504 c 256
 59 794 330 926 571 976 c 257
 563 1121 l 257
 826 1136 l 257
 863 503 l 258
 872 338 912 262 1094 262 c 257
 1095 262 l 257
 1095 0 l 257
EndSplineSet
EndChar

StartChar: uniE060
Encoding: 57440 57440 390
GlifName: uniE_060
Width: 1361
VWidth: 0
GlyphClass: 2
Flags: HW
LayerCount: 2
Fore
SplineSet
0 262 m 256
 64 262 134 267 188 275 c 257
 129 343 89 428 89 522 c 256
 89 641 149 757 247 839 c 257
 94 892 l 257
 180 1130 l 257
 716 932 l 258
 1093 794 1303 647 1303 376 c 256
 1303 172 1154 0 897 0 c 256
 765 0 655 18 496 70 c 257
 354 22 173 0 0 0 c 256
 -72 0 -132 60 -132 132 c 256
 -132 204 -72 262 0 262 c 256
472 342 m 257
 566 384 625 449 625 554 c 256
 625 640 588 712 496 712 c 256
 410 712 341 638 341 532 c 256
 341 451 393 389 472 342 c 257
726 282 m 257
 786 270 850 262 902 262 c 256
 990 262 1045 298 1045 379 c 256
 1045 463 968 545 840 597 c 257
 856 480 804 354 726 282 c 257
EndSplineSet
EndChar

StartChar: uniE061
Encoding: 57441 57441 391
GlifName: uniE_061
Width: 1111
VWidth: 0
GlyphClass: 2
Flags: HW
LayerCount: 2
Fore
SplineSet
374 298 m 257
 547 334 662 403 662 532 c 256
 662 603 631 646 568 646 c 256
 480 646 375 529 374 298 c 257
1112 0 m 257
 1111 0 l 258
 939 0 840 -86 840 -250 c 258
 840 -410 l 257
 656 -529 l 257
 392 -473 212 -272 143 2 c 257
 95 1 51 0 0 0 c 257
 -72 0 -132 60 -132 132 c 256
 -132 204 -72 262 0 262 c 257
 45 262 83 263 124 264 c 257
 141 594 261 908 568 908 c 256
 759 908 874 768 874 562 c 256
 874 289 618 73 390 33 c 257
 423 -97 514 -212 608 -251 c 257
 619 -244 l 257
 619 -189 l 258
 619 60 859 262 1111 262 c 258
 1112 262 l 257
 1112 0 l 257
EndSplineSet
EndChar

StartChar: uniE062
Encoding: 57442 57442 392
GlifName: uniE_062
Width: 953
VWidth: 0
GlyphClass: 2
Flags: HW
LayerCount: 2
Fore
SplineSet
626 260 m 257
 611 452 558 579 464 579 c 256
 387 579 325 487 325 365 c 256
 325 277 365 250 477 250 c 256
 528 250 582 253 626 260 c 257
848 0 m 257
 776 -274 549 -453 146 -554 c 257
 59 -307 l 257
 343 -237 534 -107 594 7 c 257
 552 3 498 0 448 0 c 256
 236 0 91 116 91 354 c 256
 91 581 222 845 469 845 c 256
 759 845 864 539 875 262 c 257
 954 262 l 257
 954 0 l 257
 848 0 l 257
EndSplineSet
EndChar

StartChar: uniE063
Encoding: 57443 57443 393
GlifName: uniE_063
Width: 1143
VWidth: 0
GlyphClass: 2
Flags: HW
LayerCount: 2
Fore
SplineSet
716 555 m 257
 637 457 535 361 445 285 c 257
 445 272 l 257
 479 262 518 256 555 256 c 256
 708 256 788 284 788 324 c 256
 788 357 760 461 716 555 c 257
700 923 m 257
 759 1055 790 1200 790 1380 c 257
 1053 1380 l 257
 1053 1094 972 917 859 728 c 257
 938 594 1014 447 1014 318 c 256
 1014 36 715 0 575 0 c 256
 406 0 258 45 140 114 c 257
 140 334 l 257
 283 438 440 574 562 732 c 257
 428 922 230 1065 59 1179 c 257
 209 1396 l 257
 390 1273 564 1099 700 923 c 257
EndSplineSet
EndChar

StartChar: uniE064
Encoding: 57444 57444 394
GlifName: uniE_064
Width: 1432
VWidth: 0
GlyphClass: 2
Flags: HW
LayerCount: 2
Fore
SplineSet
573 491 m 257
 311 472 l 257
 311 764 253 1018 129 1307 c 257
 370 1410 l 257
 510 1086 573 797 573 491 c 257
1433 0 m 257
 1431 0 l 257
 1240 0 1084 62 996 204 c 257
 818 36 539 0 105 0 c 257
 105 262 l 257
 795 262 898 340 898 592 c 258
 898 1380 l 257
 1161 1380 l 257
 1161 596 l 258
 1161 468 1169 385 1203 335 c 256
 1239 284 1305 262 1431 262 c 258
 1433 262 l 257
 1433 0 l 257
EndSplineSet
EndChar

StartChar: uniE065
Encoding: 57445 57445 395
GlifName: uniE_065
Width: 1866
VWidth: 0
GlyphClass: 2
Flags: HW
LayerCount: 2
Fore
SplineSet
1720 682 m 257
 1687 564 1665 469 1665 403 c 256
 1665 300 1713 262 1865 262 c 258
 1867 262 l 257
 1867 0 l 257
 1865 0 l 257
 1638 0 1517 77 1445 228 c 257
 1290 59 1051 0 753 0 c 256
 279 0 59 198 59 533 c 256
 59 636 82 752 132 879 c 257
 372 789 l 257
 342 693 323 612 323 542 c 256
 323 358 449 262 799 262 c 256
 1204 262 1401 389 1475 744 c 257
 1720 682 l 257
EndSplineSet
EndChar

StartChar: uniE066
Encoding: 57446 57446 396
GlifName: uniE_066
Width: 919
VWidth: 0
GlyphClass: 2
Flags: HW
LayerCount: 2
Fore
SplineSet
624 435 m 257
 557 415 492 407 418 407 c 256
 213 407 62 506 62 741 c 256
 62 963 180 1242 437 1242 c 256
 830 1242 860 697 860 519 c 256
 860 103 684 0 0 0 c 256
 -72 0 -132 60 -132 132 c 256
 -132 204 -73 262 0 262 c 256
 595 262 624 281 624 435 c 257
597 666 m 257
 579 860 523 981 433 981 c 256
 356 981 291 888 291 765 c 256
 291 678 329 647 441 647 c 256
 497 647 552 652 597 666 c 257
EndSplineSet
EndChar

StartChar: uniE067
Encoding: 57447 57447 397
GlifName: uniE_067
Width: 1874
VWidth: 0
GlyphClass: 2
Flags: HW
LayerCount: 2
Fore
SplineSet
1380 76 m 257
 1226 27 1047 0 842 0 c 256
 447 0 54 48 54 486 c 256
 54 636 95 753 134 857 c 257
 384 776 l 257
 349 676 323 586 323 512 c 256
 323 326 404 262 842 262 c 256
 933 262 1040 265 1112 280 c 257
 1031 349 982 444 982 576 c 256
 982 818 1156 985 1386 985 c 256
 1612 985 1790 819 1790 579 c 256
 1790 449 1743 350 1659 280 c 257
 1715 268 1785 262 1874 262 c 257
 1875 262 l 257
 1875 0 l 257
 1874 0 l 257
 1704 0 1515 30 1380 76 c 257
1384 342 m 257
 1477 387 1528 463 1528 564 c 256
 1528 657 1478 723 1386 723 c 256
 1291 723 1244 659 1244 564 c 256
 1244 466 1298 388 1384 342 c 257
EndSplineSet
EndChar

StartChar: uniE068
Encoding: 57448 57448 398
GlifName: uniE_068
Width: 978
VWidth: 0
GlyphClass: 2
Flags: HW
LayerCount: 2
Fore
SplineSet
0 262 m 256
 72 262 148 265 216 279 c 257
 134 348 85 444 85 576 c 256
 85 818 260 985 490 985 c 256
 716 985 894 819 894 579 c 256
 894 449 844 349 762 279 c 257
 816 267 916 262 978 262 c 257
 979 262 l 257
 979 0 l 257
 978 0 l 257
 808 0 618 30 484 75 c 257
 337 23 184 0 0 0 c 256
 -72 0 -132 60 -132 132 c 256
 -132 204 -72 262 0 262 c 256
488 342 m 257
 579 388 631 463 631 564 c 256
 631 657 582 723 490 723 c 256
 395 723 348 659 348 564 c 256
 348 466 402 388 488 342 c 257
EndSplineSet
EndChar

StartChar: uniE069
Encoding: 57449 57449 399
GlifName: uniE_069
Width: 1489
VWidth: 0
GlyphClass: 2
Flags: HW
LayerCount: 2
Fore
SplineSet
1159 10 m 257
 1114 6 1055 0 1004 0 c 256
 793 0 648 117 648 354 c 256
 648 581 779 845 1026 845 c 256
 1305 845 1411 562 1429 262 c 257
 1489 262 l 257
 1489 0 l 257
 1416 0 l 257
 1350 -348 1089 -530 698 -530 c 256
 378 -530 59 -367 59 37 c 256
 59 238 116 391 197 552 c 257
 425 430 l 257
 358 291 322 164 322 37 c 256
 322 -161 444 -268 712 -268 c 256
 988 -268 1116 -165 1159 10 c 257
1182 260 m 257
 1168 455 1113 579 1021 579 c 256
 944 579 882 487 882 365 c 256
 882 277 922 250 1034 250 c 256
 1085 250 1138 253 1182 260 c 257
EndSplineSet
EndChar

StartChar: uniFD3E
Encoding: 64830 64830 428
GlifName: uniF_D_3E_
Width: 778
VWidth: 0
GlyphClass: 2
Flags: HW
LayerCount: 2
Fore
SplineSet
208 715 m 256
 208 634 279 564 360 564 c 256
 441 564 511 634 511 715 c 256
 511 796 441 866 360 866 c 256
 279 866 208 796 208 715 c 256
708 -103 m 257
 507 -236 l 257
 385 -47 279 191 245 452 c 257
 143 495 71 597 71 715 c 256
 71 833 143 936 245 979 c 257
 279 1240 385 1477 507 1666 c 257
 708 1534 l 257
 606 1375 537 1176 508 961 c 257
 592 911 649 819 649 715 c 256
 649 611 592 520 508 470 c 257
 537 255 606 56 708 -103 c 257
EndSplineSet
EndChar

StartChar: uniFD3F
Encoding: 64831 64831 429
GlifName: uniF_D_3F_
Width: 778
VWidth: 0
GlyphClass: 2
Flags: HW
LayerCount: 2
Fore
SplineSet
570 715 m 256
 570 796 500 866 419 866 c 256
 338 866 267 796 267 715 c 256
 267 634 338 564 419 564 c 256
 500 564 570 634 570 715 c 256
71 1534 m 257
 272 1666 l 257
 394 1477 500 1240 534 979 c 257
 636 936 708 833 708 715 c 256
 708 597 636 495 534 452 c 257
 500 191 394 -47 272 -236 c 257
 71 -103 l 257
 173 56 242 255 271 470 c 257
 187 520 130 611 130 715 c 256
 130 819 187 911 271 961 c 257
 242 1176 173 1375 71 1534 c 257
EndSplineSet
EndChar

StartChar: v
Encoding: 118 118 527
GlifName: v
Width: 1065
VWidth: 0
GlyphClass: 2
Flags: HW
LayerCount: 2
Fore
SplineSet
778 996 m 257
 1058 996 l 257
 660 0 l 257
 407 0 l 257
 8 996 l 257
 288 996 l 257
 534 332 l 257
 778 996 l 257
EndSplineSet
EndChar

StartChar: w
Encoding: 119 119 528
GlifName: w
Width: 1495
VWidth: 0
GlyphClass: 2
Flags: HW
LayerCount: 2
Fore
SplineSet
1181 996 m 257
 1454 996 l 257
 1153 0 l 257
 911 0 l 257
 748 628 l 257
 587 0 l 257
 346 0 l 257
 42 996 l 257
 315 996 l 257
 480 344 l 257
 645 996 l 257
 850 996 l 257
 1016 344 l 257
 1181 996 l 257
EndSplineSet
EndChar

StartChar: x
Encoding: 120 120 529
GlifName: x
Width: 1091
VWidth: 0
GlyphClass: 2
Flags: HW
LayerCount: 2
Fore
SplineSet
744 996 m 257
 1071 996 l 257
 686 486 l 257
 1071 0 l 257
 744 0 l 257
 546 302 l 257
 349 0 l 257
 22 0 l 257
 406 486 l 257
 22 996 l 257
 349 996 l 257
 546 669 l 257
 744 996 l 257
EndSplineSet
EndChar

StartChar: y
Encoding: 121 121 530
GlifName: y
Width: 1085
VWidth: 0
GlyphClass: 2
Flags: HW
LayerCount: 2
Fore
SplineSet
799 996 m 257
 1078 996 l 257
 700 80 l 258
 607 -140 474 -430 140 -430 c 258
 32 -430 l 257
 32 -191 l 257
 140 -191 l 258
 268 -191 342 -120 420 62 c 257
 397 62 l 257
 8 996 l 257
 288 996 l 257
 544 343 l 257
 799 996 l 257
EndSplineSet
EndChar

StartChar: z
Encoding: 122 122 534
GlifName: z
Width: 974
VWidth: 0
GlyphClass: 2
Flags: HW
LayerCount: 2
Fore
SplineSet
84 772 m 257
 84 996 l 257
 902 996 l 257
 902 801 l 257
 384 223 l 257
 902 223 l 257
 902 0 l 257
 84 0 l 257
 84 195 l 257
 600 772 l 257
 84 772 l 257
EndSplineSet
EndChar

StartChar: zero
Encoding: 48 48 535
GlifName: zero
Width: 1253
VWidth: 0
GlyphClass: 2
Flags: HW
LayerCount: 2
Fore
SplineSet
628 1400 m 256
 1089 1400 1149 990 1149 690 c 256
 1149 390 1089 -21 628 -21 c 256
 167 -21 105 390 105 690 c 256
 105 990 167 1400 628 1400 c 256
628 1176 m 256
 437 1176 368 1001 368 690 c 256
 368 379 437 202 628 202 c 256
 819 202 886 378 886 690 c 256
 886 1002 819 1176 628 1176 c 256
EndSplineSet
EndChar

